<svg xmlns="http://www.w3.org/2000/svg" xmlns:xlink="http://www.w3.org/1999/xlink" viewBox="0 0 567.24 368.97"><defs><style>.cls-1{isolation:isolate;}.cls-2{fill:#fff;}.cls-3{fill:url(#linear-gradient);}.cls-4{fill:url(#linear-gradient-2);}.cls-5{fill:url(#linear-gradient-3);}.cls-6{fill:url(#linear-gradient-4);}.cls-7{fill:url(#linear-gradient-5);}.cls-8{fill:url(#linear-gradient-6);}.cls-9{fill:url(#linear-gradient-7);}.cls-10{fill:url(#linear-gradient-8);}.cls-11{fill:url(#linear-gradient-9);}.cls-12{fill:url(#linear-gradient-10);}.cls-13{fill:url(#New_Gradient_Swatch_21);}.cls-14{opacity:0.3;}.cls-15{fill:url(#linear-gradient-11);}.cls-16{fill:url(#linear-gradient-12);}.cls-17{fill:url(#linear-gradient-13);}.cls-18{fill:url(#linear-gradient-14);}.cls-19{fill:url(#New_Gradient_Swatch_3);}.cls-20{fill:url(#linear-gradient-15);}.cls-21{fill:url(#linear-gradient-16);}.cls-22{fill:url(#linear-gradient-17);}.cls-23{fill:url(#linear-gradient-18);}.cls-24{fill:url(#New_Gradient_Swatch_3-2);}.cls-25{fill:url(#linear-gradient-19);}.cls-26{fill:url(#linear-gradient-20);}.cls-27{fill:url(#linear-gradient-21);}.cls-28{fill:url(#linear-gradient-22);}.cls-29{fill:url(#New_Gradient_Swatch_3-3);}.cls-30{fill:url(#linear-gradient-23);}.cls-31{fill:url(#linear-gradient-24);}.cls-32{fill:url(#linear-gradient-25);}.cls-33{fill:url(#linear-gradient-26);}.cls-34{fill:url(#New_Gradient_Swatch_3-4);}.cls-35{fill:#fce8f4;}.cls-36{fill:url(#linear-gradient-27);}.cls-37{fill:url(#linear-gradient-28);}.cls-38{fill:url(#linear-gradient-29);}.cls-39{fill:url(#linear-gradient-30);}.cls-40{fill:url(#linear-gradient-31);}.cls-41{fill:url(#linear-gradient-32);}.cls-42{fill:url(#linear-gradient-33);}.cls-43{fill:url(#linear-gradient-34);}.cls-44{fill:url(#linear-gradient-35);}.cls-45{fill:url(#linear-gradient-36);}.cls-46{fill:url(#New_Gradient_Swatch_3-5);}.cls-47{fill:url(#New_Gradient_Swatch_3-6);}.cls-48{fill:url(#New_Gradient_Swatch_3-7);}.cls-49{fill:url(#New_Gradient_Swatch_3-8);}.cls-50{fill:#e4b2f9;}.cls-51{fill:url(#linear-gradient-37);}.cls-52{fill:url(#linear-gradient-38);}.cls-53{fill:url(#linear-gradient-39);}.cls-54{fill:url(#linear-gradient-40);}.cls-55{fill:url(#linear-gradient-41);}.cls-56{fill:url(#linear-gradient-42);}.cls-57{fill:url(#New_Gradient_Swatch_3-9);}.cls-58{fill:url(#linear-gradient-43);}.cls-59{fill:url(#linear-gradient-44);}.cls-60{mix-blend-mode:multiply;fill:url(#radial-gradient);}.cls-61{fill:url(#linear-gradient-45);}.cls-62{fill:url(#linear-gradient-46);}.cls-63{fill:url(#linear-gradient-47);}.cls-64{fill:url(#radial-gradient-2);}.cls-65{mix-blend-mode:color-dodge;fill:url(#linear-gradient-48);}.cls-66{fill:url(#linear-gradient-49);}.cls-67{fill:url(#New_Gradient_Swatch_3-10);}.cls-68{fill:#b586e2;}.cls-69{fill:#8837b8;}.cls-70{fill:url(#linear-gradient-50);}.cls-71{fill:url(#linear-gradient-51);}.cls-72{fill:url(#linear-gradient-52);}.cls-73{fill:url(#linear-gradient-53);}.cls-74{fill:url(#linear-gradient-54);}.cls-75{fill:url(#New_Gradient_Swatch_3-11);}.cls-76{mix-blend-mode:screen;fill:url(#radial-gradient-3);}.cls-77{fill:url(#linear-gradient-55);}.cls-78{fill:url(#linear-gradient-56);}.cls-79{fill:url(#linear-gradient-57);}.cls-80{fill:url(#linear-gradient-58);}.cls-81{fill:url(#New_Gradient_Swatch_3-12);}.cls-82{fill:url(#linear-gradient-59);}.cls-83{fill:url(#linear-gradient-60);}.cls-84{fill:url(#New_Gradient_Swatch_8);}.cls-85{fill:url(#linear-gradient-61);}.cls-86{fill:url(#New_Gradient_Swatch_8-2);}.cls-87{fill:url(#linear-gradient-62);}.cls-88{fill:url(#linear-gradient-63);}.cls-89{fill:url(#linear-gradient-64);}.cls-90{fill:url(#radial-gradient-4);}.cls-91{fill:url(#linear-gradient-65);}.cls-92{fill:url(#linear-gradient-66);}.cls-93{fill:url(#New_Gradient_Swatch_8-3);}.cls-94{fill:url(#linear-gradient-67);}.cls-95{fill:url(#New_Gradient_Swatch_8-4);}.cls-96{fill:url(#linear-gradient-68);}.cls-97{fill:url(#radial-gradient-5);}</style><linearGradient id="linear-gradient" x1="4067.99" y1="-58.41" x2="4126.79" y2="414.37" gradientTransform="matrix(-1, 0, 0, 1, 4141.74, 0)" gradientUnits="userSpaceOnUse"><stop offset="0" stop-color="#fffdfe"/><stop offset="1" stop-color="#fdf3f9"/></linearGradient><linearGradient id="linear-gradient-2" x1="4026.02" y1="-53.19" x2="4084.81" y2="419.59" xlink:href="#linear-gradient"/><linearGradient id="linear-gradient-3" x1="3610.83" y1="-1.56" x2="3669.63" y2="471.22" xlink:href="#linear-gradient"/><linearGradient id="linear-gradient-4" x1="3842.22" y1="2.17" x2="3893.05" y2="410.94" gradientTransform="matrix(-1, 0, 0, 1, 4141.74, 0)" gradientUnits="userSpaceOnUse"><stop offset="0" stop-color="#fffcfd"/><stop offset="1" stop-color="#fbebf5"/></linearGradient><linearGradient id="linear-gradient-5" x1="3816.21" y1="37.9" x2="3859.08" y2="382.66" gradientTransform="matrix(-1, 0, 0, 1, 4141.74, 0)" gradientUnits="userSpaceOnUse"><stop offset="0" stop-color="#fffafd"/><stop offset="1" stop-color="#f9e3f1"/></linearGradient><linearGradient id="linear-gradient-6" x1="3589.53" y1="66.09" x2="3632.4" y2="410.85" xlink:href="#linear-gradient-5"/><linearGradient id="linear-gradient-7" x1="3782.49" y1="74.59" x2="3817.41" y2="355.35" gradientTransform="matrix(-1, 0, 0, 1, 4141.74, 0)" gradientUnits="userSpaceOnUse"><stop offset="0" stop-color="#fff9fc"/><stop offset="1" stop-color="#f8dbed"/></linearGradient><linearGradient id="linear-gradient-8" x1="3778.68" y1="107.67" x2="3805.6" y2="324.21" gradientTransform="matrix(-1, 0, 0, 1, 4141.74, 0)" gradientUnits="userSpaceOnUse"><stop offset="0" stop-color="#fff8fb"/><stop offset="1" stop-color="#f6d2e8"/></linearGradient><linearGradient id="linear-gradient-9" x1="3782.65" y1="139.66" x2="3801.63" y2="292.22" gradientTransform="matrix(-1, 0, 0, 1, 4141.74, 0)" gradientUnits="userSpaceOnUse"><stop offset="0" stop-color="#fff6fb"/><stop offset="1" stop-color="#f4cae4"/></linearGradient><linearGradient id="linear-gradient-10" x1="3786.63" y1="171.65" x2="3797.65" y2="260.24" gradientTransform="matrix(-1, 0, 0, 1, 4141.74, 0)" gradientUnits="userSpaceOnUse"><stop offset="0" stop-color="#fff5fa"/><stop offset="1" stop-color="#f2c2e0"/></linearGradient><linearGradient id="New_Gradient_Swatch_21" x1="3622.18" y1="149.61" x2="4142.46" y2="149.61" gradientTransform="matrix(-1, 0, 0, 1, 4141.74, 0)" gradientUnits="userSpaceOnUse"><stop offset="0" stop-color="#f9a9d7"/><stop offset="1" stop-color="#f9e5f0"/></linearGradient><linearGradient id="linear-gradient-11" x1="-1178.9" y1="32.27" x2="-1164.22" y2="46.95" gradientTransform="translate(1277.99)" gradientUnits="userSpaceOnUse"><stop offset="0" stop-color="#ff9acd"/><stop offset="1" stop-color="#f27ac5"/></linearGradient><linearGradient id="linear-gradient-12" x1="-1164.52" y1="42.64" x2="-1142.69" y2="57.23" gradientTransform="translate(744.24 1024.11) rotate(60)" gradientUnits="userSpaceOnUse"><stop offset="0" stop-color="#e985ca"/><stop offset="0.98" stop-color="#c05cbc"/><stop offset="1" stop-color="#c05cbc"/></linearGradient><linearGradient id="linear-gradient-13" x1="-1150.11" y1="54.26" x2="-1121.25" y2="66.21" gradientTransform="translate(762.17 1013.76) rotate(60)" gradientUnits="userSpaceOnUse"><stop offset="0" stop-color="#d371c6"/><stop offset="0.98" stop-color="#8e3db3"/><stop offset="1" stop-color="#8e3db3"/></linearGradient><linearGradient id="linear-gradient-14" x1="-1135.69" y1="66.98" x2="-1099.92" y2="74.09" gradientTransform="translate(780.09 1003.41) rotate(60)" gradientUnits="userSpaceOnUse"><stop offset="0" stop-color="#bc5dc3"/><stop offset="0.98" stop-color="#5b1faa"/><stop offset="1" stop-color="#5b1faa"/></linearGradient><linearGradient id="New_Gradient_Swatch_3" x1="-1120.58" y1="80.86" x2="-1079.45" y2="80.86" gradientTransform="translate(798.01 993.06) rotate(60)" gradientUnits="userSpaceOnUse"><stop offset="0" stop-color="#a648bf"/><stop offset="0.98" stop-color="#2900a1"/></linearGradient><linearGradient id="linear-gradient-15" x1="-1257.74" y1="26.19" x2="-1253.23" y2="30.7" xlink:href="#linear-gradient-11"/><linearGradient id="linear-gradient-16" x1="-1253.32" y1="29.38" x2="-1246.62" y2="33.85" gradientTransform="translate(1277.99)" xlink:href="#linear-gradient-12"/><linearGradient id="linear-gradient-17" x1="-1248.9" y1="32.94" x2="-1240.05" y2="36.61" gradientTransform="translate(1277.99)" xlink:href="#linear-gradient-13"/><linearGradient id="linear-gradient-18" x1="-1244.48" y1="36.84" x2="-1233.51" y2="39.03" gradientTransform="translate(1277.99)" xlink:href="#linear-gradient-14"/><linearGradient id="New_Gradient_Swatch_3-2" x1="-1239.84" y1="41.1" x2="-1227.22" y2="41.1" gradientTransform="translate(1277.99)" xlink:href="#New_Gradient_Swatch_3"/><linearGradient id="linear-gradient-19" x1="-1044.26" y1="26.19" x2="-1039.76" y2="30.7" xlink:href="#linear-gradient-11"/><linearGradient id="linear-gradient-20" x1="-1039.85" y1="29.38" x2="-1033.15" y2="33.85" gradientTransform="translate(1277.99)" xlink:href="#linear-gradient-12"/><linearGradient id="linear-gradient-21" x1="-1035.43" y1="32.94" x2="-1026.58" y2="36.61" gradientTransform="translate(1277.99)" xlink:href="#linear-gradient-13"/><linearGradient id="linear-gradient-22" x1="-1031.01" y1="36.84" x2="-1020.03" y2="39.03" gradientTransform="translate(1277.99)" xlink:href="#linear-gradient-14"/><linearGradient id="New_Gradient_Swatch_3-3" x1="-1026.37" y1="41.1" x2="-1013.75" y2="41.1" gradientTransform="translate(1277.99)" xlink:href="#New_Gradient_Swatch_3"/><linearGradient id="linear-gradient-23" x1="-1253.19" y1="90.27" x2="-1248.69" y2="94.78" xlink:href="#linear-gradient-11"/><linearGradient id="linear-gradient-24" x1="-1248.78" y1="93.45" x2="-1242.08" y2="97.93" gradientTransform="translate(1277.99)" xlink:href="#linear-gradient-12"/><linearGradient id="linear-gradient-25" x1="-1244.36" y1="97.02" x2="-1235.51" y2="100.69" gradientTransform="translate(1277.99)" xlink:href="#linear-gradient-13"/><linearGradient id="linear-gradient-26" x1="-1239.94" y1="100.92" x2="-1228.96" y2="103.1" gradientTransform="translate(1277.99)" xlink:href="#linear-gradient-14"/><linearGradient id="New_Gradient_Swatch_3-4" x1="-1235.3" y1="105.18" x2="-1222.68" y2="105.18" gradientTransform="translate(1277.99)" xlink:href="#New_Gradient_Swatch_3"/><linearGradient id="linear-gradient-27" x1="3603.72" y1="100.54" x2="3619.98" y2="116.79" xlink:href="#linear-gradient-10"/><linearGradient id="linear-gradient-28" x1="3619.57" y1="107.99" x2="3643.97" y2="132.4" xlink:href="#linear-gradient-10"/><linearGradient id="linear-gradient-29" x1="3635.41" y1="115.45" x2="3667.97" y2="148.01" xlink:href="#linear-gradient-10"/><linearGradient id="linear-gradient-30" x1="3651.25" y1="122.9" x2="3691.97" y2="163.62" gradientTransform="matrix(-0.87, -0.5, -0.5, 0.87, 3721.32, 1854.77)" xlink:href="#linear-gradient-10"/><linearGradient id="linear-gradient-31" x1="3667.09" y1="130.36" x2="3715.97" y2="179.24" gradientTransform="matrix(-0.87, -0.5, -0.5, 0.87, 3724.39, 1866.22)" xlink:href="#linear-gradient-10"/><linearGradient id="linear-gradient-32" x1="-1100.58" y1="117.36" x2="-1089.06" y2="128.89" gradientTransform="translate(1317.59)" xlink:href="#linear-gradient-10"/><linearGradient id="linear-gradient-33" x1="-1089.35" y1="122.65" x2="-1072.03" y2="139.97" gradientTransform="translate(1317.59)" xlink:href="#linear-gradient-10"/><linearGradient id="linear-gradient-34" x1="-1078.11" y1="127.94" x2="-1055.01" y2="151.04" gradientTransform="translate(1317.59)" xlink:href="#linear-gradient-10"/><linearGradient id="linear-gradient-35" x1="-1066.87" y1="133.23" x2="-1037.99" y2="162.11" gradientTransform="translate(918.88 985.37) rotate(60)" xlink:href="#linear-gradient-10"/><linearGradient id="linear-gradient-36" x1="-1055.63" y1="138.52" x2="-1020.97" y2="173.19" gradientTransform="translate(932.96 977.24) rotate(60)" xlink:href="#linear-gradient-10"/><linearGradient id="New_Gradient_Swatch_3-5" x1="4351.15" y1="1603.7" x2="4362.36" y2="1615.89" gradientTransform="matrix(-0.5, -0.87, -0.58, 1, 3367.22, 2240.78)" xlink:href="#New_Gradient_Swatch_3"/><linearGradient id="New_Gradient_Swatch_3-6" x1="4056.23" y1="1451.91" x2="4069.22" y2="1466.06" gradientTransform="matrix(-0.5, -0.87, -0.58, 1, 3387.84, 2109.94)" xlink:href="#New_Gradient_Swatch_3"/><linearGradient id="New_Gradient_Swatch_3-7" x1="4145.12" y1="1521.8" x2="4163.01" y2="1541.27" gradientTransform="matrix(-0.5, -0.87, -0.58, 1, 3396.45, 2154.94)" xlink:href="#New_Gradient_Swatch_3"/><linearGradient id="New_Gradient_Swatch_3-8" x1="4103.25" y1="1650.22" x2="4120.45" y2="1668.95" gradientTransform="matrix(-0.5, -0.87, -0.58, 1, 3493.77, 2121.63)" xlink:href="#New_Gradient_Swatch_3"/><linearGradient id="linear-gradient-37" x1="3724.64" y1="238.91" x2="3879.37" y2="170.03" gradientTransform="matrix(-1, 0, 0, 1, 4141.74, 0)" gradientUnits="userSpaceOnUse"><stop offset="0" stop-color="#7566e0"/><stop offset="0.18" stop-color="#ac7bc8"/><stop offset="0.34" stop-color="#d88cb4"/><stop offset="0.42" stop-color="#e993ad"/><stop offset="1" stop-color="#d552dc"/></linearGradient><linearGradient id="linear-gradient-38" x1="3730.13" y1="251.52" x2="3874.87" y2="187.09" xlink:href="#linear-gradient-37"/><linearGradient id="linear-gradient-39" x1="3889.75" y1="259.85" x2="3844.49" y2="195.38" gradientTransform="matrix(-1, 0, 0, 1, 4141.74, 0)" gradientUnits="userSpaceOnUse"><stop offset="0" stop-color="#a648bf"/><stop offset="1" stop-color="#6723b0"/></linearGradient><linearGradient id="linear-gradient-40" x1="3897.43" y1="257.95" x2="3862.8" y2="183.96" gradientTransform="matrix(-1, 0, 0, 1, 4141.74, 0)" gradientUnits="userSpaceOnUse"><stop offset="0.33" stop-color="#a67dd0"/><stop offset="0.56" stop-color="#f9aaaa"/><stop offset="1" stop-color="#d54bdc"/></linearGradient><linearGradient id="linear-gradient-41" x1="3855.48" y1="220.31" x2="3962.93" y2="172.47" xlink:href="#linear-gradient-37"/><linearGradient id="linear-gradient-42" x1="3856.17" y1="179.44" x2="3867.84" y2="195.48" gradientTransform="matrix(-1, 0, 0, 1, 4141.74, 0)" gradientUnits="userSpaceOnUse"><stop offset="0.02" stop-color="#2900a1"/><stop offset="1" stop-color="#a648bf"/></linearGradient><linearGradient id="New_Gradient_Swatch_3-9" x1="3829.44" y1="213.82" x2="3865.23" y2="214.65" gradientTransform="matrix(-1, 0, 0, 1, 4141.74, 0)" xlink:href="#New_Gradient_Swatch_3"/><linearGradient id="linear-gradient-43" x1="3806.36" y1="212.09" x2="3752.64" y2="254.16" gradientTransform="matrix(-1, 0, 0, 1, 4141.74, 0)" gradientUnits="userSpaceOnUse"><stop offset="0.02" stop-color="#2900a1"/><stop offset="1" stop-color="#6c27b1"/></linearGradient><linearGradient id="linear-gradient-44" x1="3771.61" y1="226.02" x2="3833.8" y2="198.33" gradientTransform="matrix(-1, 0, 0, 1, 4141.74, 0)" gradientUnits="userSpaceOnUse"><stop offset="0" stop-color="#7566e0"/><stop offset="0.42" stop-color="#f9bbbb"/><stop offset="1" stop-color="#d552dc"/></linearGradient><radialGradient id="radial-gradient" cx="3796.29" cy="209.82" r="21.34" gradientTransform="matrix(-1, 0, 0, 1, 4141.74, 0)" gradientUnits="userSpaceOnUse"><stop offset="0.02" stop-color="#745fce"/><stop offset="1" stop-color="#fff"/></radialGradient><linearGradient id="linear-gradient-45" x1="3801.62" y1="189.98" x2="3775.36" y2="210.54" xlink:href="#linear-gradient-42"/><linearGradient id="linear-gradient-46" x1="3826.94" y1="122.9" x2="3816.4" y2="102.52" gradientTransform="matrix(-1, 0, 0, 1, 4141.74, 0)" gradientUnits="userSpaceOnUse"><stop offset="0.02" stop-color="#2900a1"/><stop offset="1" stop-color="#d86dfc"/></linearGradient><linearGradient id="linear-gradient-47" x1="3821.76" y1="109.61" x2="3815.02" y2="121.92" gradientTransform="matrix(-1, 0, 0, 1, 4141.74, 0)" gradientUnits="userSpaceOnUse"><stop offset="0.02" stop-color="#2900a1"/><stop offset="1" stop-color="#8233b6"/></linearGradient><radialGradient id="radial-gradient-2" cx="3798.06" cy="136.8" r="30.82" gradientTransform="matrix(-1, 0, 0, 1, 4141.74, 0)" xlink:href="#New_Gradient_Swatch_3"/><linearGradient id="linear-gradient-48" x1="3805.39" y1="164.75" x2="3802.18" y2="153.73" gradientTransform="matrix(-1, 0, 0, 1, 4141.74, 0)" gradientUnits="userSpaceOnUse"><stop offset="0" stop-color="#e89131"/><stop offset="0.09" stop-color="#df8b2f"/><stop offset="0.24" stop-color="#c67c2a"/><stop offset="0.43" stop-color="#9e6321"/><stop offset="0.65" stop-color="#674016"/><stop offset="0.89" stop-color="#211407"/><stop offset="1"/></linearGradient><linearGradient id="linear-gradient-49" x1="3778.57" y1="126.07" x2="3824.64" y2="105.56" xlink:href="#linear-gradient-37"/><linearGradient id="New_Gradient_Swatch_3-10" x1="3749.57" y1="132.99" x2="3822.28" y2="134.68" gradientTransform="matrix(-1, 0, 0, 1, 4141.74, 0)" xlink:href="#New_Gradient_Swatch_3"/><linearGradient id="linear-gradient-50" x1="3816.83" y1="145.45" x2="3751.92" y2="196.28" xlink:href="#linear-gradient-42"/><linearGradient id="linear-gradient-51" x1="3788.14" y1="143.66" x2="3771.77" y2="173.54" xlink:href="#linear-gradient-42"/><linearGradient id="linear-gradient-52" x1="3833.31" y1="138.9" x2="3780.29" y2="167" gradientTransform="matrix(-1, 0, 0, 1, 4141.74, 0)" gradientUnits="userSpaceOnUse"><stop offset="0" stop-color="#6e28b2"/><stop offset="1" stop-color="#a648bf"/></linearGradient><linearGradient id="linear-gradient-53" x1="3782.96" y1="148.29" x2="3772.42" y2="127.91" xlink:href="#linear-gradient-46"/><linearGradient id="linear-gradient-54" x1="3785.28" y1="127.2" x2="3757.42" y2="163.02" xlink:href="#linear-gradient-37"/><linearGradient id="New_Gradient_Swatch_3-11" x1="3772.69" y1="64.32" x2="3819.23" y2="128.3" gradientTransform="matrix(-1, 0, 0, 1, 4141.74, 0)" xlink:href="#New_Gradient_Swatch_3"/><radialGradient id="radial-gradient-3" cx="3796.9" cy="62.67" r="23.72" gradientTransform="matrix(-1, 0, 0, 1, 4141.74, 0)" gradientUnits="userSpaceOnUse"><stop offset="0" stop-color="#7a04a5"/><stop offset="0.12" stop-color="#73049c"/><stop offset="0.31" stop-color="#610383"/><stop offset="0.55" stop-color="#44025b"/><stop offset="0.83" stop-color="#1b0125"/><stop offset="1"/></radialGradient><linearGradient id="linear-gradient-55" x1="3793.64" y1="315.35" x2="3748.37" y2="250.87" xlink:href="#linear-gradient-39"/><linearGradient id="linear-gradient-56" x1="3801.32" y1="313.44" x2="3766.69" y2="239.45" xlink:href="#linear-gradient-40"/><linearGradient id="linear-gradient-57" x1="3759.36" y1="275.8" x2="3866.81" y2="227.96" xlink:href="#linear-gradient-37"/><linearGradient id="linear-gradient-58" x1="3760.06" y1="234.93" x2="3771.72" y2="250.97" xlink:href="#linear-gradient-42"/><linearGradient id="New_Gradient_Swatch_3-12" x1="3733.32" y1="269.32" x2="3769.11" y2="270.14" gradientTransform="matrix(-1, 0, 0, 1, 4141.74, 0)" xlink:href="#New_Gradient_Swatch_3"/><linearGradient id="linear-gradient-59" x1="3614.33" y1="264.73" x2="3614.65" y2="337.56" gradientTransform="matrix(-1, 0, 0, 1, 4142.46, 0.58)" gradientUnits="userSpaceOnUse"><stop offset="0" stop-color="#efa3d6"/><stop offset="1" stop-color="#fac6e3"/></linearGradient><linearGradient id="linear-gradient-60" x1="3643.27" y1="263.02" x2="3620.39" y2="243.38" gradientTransform="matrix(-1, 0, 0, 1, 4142.46, 0.58)" gradientUnits="userSpaceOnUse"><stop offset="0" stop-color="#ffd3e9"/><stop offset="1" stop-color="#f9b0da"/></linearGradient><linearGradient id="New_Gradient_Swatch_8" x1="3644.41" y1="258.75" x2="3650.74" y2="267.44" gradientTransform="matrix(-1, 0, 0, 1, 4142.46, 0.58)" gradientUnits="userSpaceOnUse"><stop offset="0" stop-color="#f9b0da"/><stop offset="1" stop-color="#ffd3e9"/></linearGradient><linearGradient id="linear-gradient-61" x1="3631.48" y1="272.8" x2="3631.48" y2="346.81" gradientTransform="matrix(-1, 0, 0, 1, 4142.46, 0.58)" gradientUnits="userSpaceOnUse"><stop offset="0" stop-color="#fecce6"/><stop offset="1" stop-color="#fcc1e1"/></linearGradient><linearGradient id="New_Gradient_Swatch_8-2" x1="3649.3" y1="264" x2="3650.16" y2="334.13" xlink:href="#New_Gradient_Swatch_8"/><linearGradient id="linear-gradient-62" x1="3675.62" y1="335.64" x2="3644.26" y2="302.69" gradientTransform="matrix(-0.86, -0.5, -0.5, 0.86, 3803.39, 1876.96)" xlink:href="#linear-gradient-60"/><linearGradient id="linear-gradient-63" x1="3661.31" y1="321.67" x2="3645.04" y2="304.57" gradientTransform="matrix(-1, 0, 0, 1, 4141.74, 0)" gradientUnits="userSpaceOnUse"><stop offset="0" stop-color="#ffd3e9"/><stop offset="1" stop-color="#efa3d6"/></linearGradient><linearGradient id="linear-gradient-64" x1="3664.47" y1="296" x2="3644.03" y2="274.52" xlink:href="#linear-gradient-63"/><radialGradient id="radial-gradient-4" cx="3646.39" cy="272.26" r="15.53" gradientTransform="matrix(-1, 0, 0, 1, 4141.74, 0)" gradientUnits="userSpaceOnUse"><stop offset="0" stop-color="#fde6f2"/><stop offset="1" stop-color="#f9b0da"/></radialGradient><linearGradient id="linear-gradient-65" x1="-3385.93" y1="194.67" x2="-3385.83" y2="216.66" gradientTransform="translate(3553.42 0.58)" gradientUnits="userSpaceOnUse"><stop offset="0" stop-color="#eb98cc"/><stop offset="1" stop-color="#fac6e3"/></linearGradient><linearGradient id="linear-gradient-66" x1="-3371.86" y1="195.8" x2="-3383.01" y2="186.23" gradientTransform="translate(3553.42 0.58)" xlink:href="#linear-gradient-60"/><linearGradient id="New_Gradient_Swatch_8-3" x1="-3371.3" y1="193.72" x2="-3368.22" y2="197.96" gradientTransform="translate(3553.42 0.58)" xlink:href="#New_Gradient_Swatch_8"/><linearGradient id="linear-gradient-67" x1="-3377.6" y1="200.27" x2="-3377.6" y2="219.47" gradientTransform="translate(3553.42 0.58)" xlink:href="#linear-gradient-61"/><linearGradient id="New_Gradient_Swatch_8-4" x1="-3368.83" y1="194.65" x2="-3368.58" y2="215.67" gradientTransform="translate(3553.42 0.58)" xlink:href="#New_Gradient_Swatch_8"/><linearGradient id="linear-gradient-68" x1="-3357.68" y1="217.6" x2="-3372.23" y2="202.33" gradientTransform="translate(2054.74 3015.11) rotate(59.84)" gradientUnits="userSpaceOnUse"><stop offset="0" stop-color="#ffd3e9"/><stop offset="1" stop-color="#eb98cc"/></linearGradient><radialGradient id="radial-gradient-5" cx="-3370.42" cy="201.09" r="10.27" gradientTransform="translate(3552.7)" xlink:href="#radial-gradient-4"/></defs><title>AdobeStock_230160057 [Convertido]</title><g class="cls-1"><g id="Layer_1" data-name="Layer 1"><rect class="cls-2" width="567.24" height="368.97"/><path class="cls-3" d="M-.72,334.07v-4.16a290.35,290.35,0,0,0,47.57,38.48h-5.4A289.62,289.62,0,0,1-.72,334.07Z" transform="translate(0.72 0.58)"/><path class="cls-4" d="M-.72,102V97.81c17.54-17.43,39-33.5,64.07-48C101.15,28,145.11,11,193-.58h13.88c-51.81,11.29-100.36,29-142,53C38.9,67.39,16.94,84.06-.72,102Z" transform="translate(0.72 0.58)"/><path class="cls-5" d="M506.24-.58a548.85,548.85,0,0,1,60.28,18.22v3.27A557.52,557.52,0,0,0,492.37-.58Z" transform="translate(0.72 0.58)"/><path class="cls-6" d="M-.41,215.94c0-54.38,36.54-105.42,102.89-143.73,66-38.13,153.8-59.12,247.12-59.12,79.73,0,155.39,15.34,216.92,43.58v4c-63.14-29.26-140-43.9-216.92-43.9-88.82,0-177.67,19.53-245.28,58.56C39.15,113,3.25,162.93,3.25,215.94S39.15,318.87,104.32,356.5c7.26,4.19,14.79,8.15,22.52,11.89h-8.26q-8.23-4.2-16.1-8.72C36.13,321.36-.41,270.32-.41,215.94Z" transform="translate(0.72 0.58)"/><path class="cls-7" d="M54.83,215.94c0-45.93,30.82-89,86.79-121.33,55.59-32.09,129.45-49.77,208-49.77S502,62.52,557.58,94.61c3.06,1.77,6,3.57,8.94,5.4v5.14q-5.37-3.47-11.1-6.79C498.66,65.6,424.14,49.22,349.6,49.22S200.52,65.61,143.78,98.36c-54.56,31.51-84.61,73.26-84.61,117.58S89.22,302,143.78,333.52c26.18,15.11,56.15,26.73,88.14,34.87H215.38c-26.88-8-51.76-18.42-73.76-31.12C85.65,305,54.83,261.87,54.83,215.94Z" transform="translate(0.72 0.58)"/><path class="cls-8" d="M566.52,326.74v5.13c-2.91,1.83-5.88,3.63-8.94,5.4-22,12.7-46.87,23.14-73.76,31.12H467.26c32-8.14,62-19.76,88.16-34.87C559.24,331.31,562.94,329,566.52,326.74Z" transform="translate(0.72 0.58)"/><path class="cls-9" d="M518.45,314.87c-45.14,26.06-105.11,40.42-168.85,40.42s-123.71-14.36-168.85-40.42c-45.57-26.31-70.67-61.45-70.67-98.93s25.1-72.62,70.67-98.93C225.89,91,285.86,76.6,349.6,76.6S473.31,91,518.45,117c20.17,11.65,36.32,25,48.07,39.57v8.22C555,148.78,537.93,134,516,121.34,470.09,94.86,409.84,81.62,349.6,81.62S229.11,94.86,183.25,121.34c-44,25.38-68.17,59-68.17,94.6s24.21,69.22,68.17,94.6c91.73,53,241,53,332.7,0,22-12.69,39-27.43,50.57-43.46v8.23C554.77,289.85,538.62,303.22,518.45,314.87Z" transform="translate(0.72 0.58)"/><path class="cls-10" d="M533.88,215.94c0-29-19.38-56.21-54.56-76.53-71.53-41.29-187.91-41.29-259.44,0-35.18,20.32-54.55,47.49-54.55,76.53s19.37,56.21,54.56,76.53c35.76,20.65,82.74,31,129.71,31s93.95-10.32,129.72-31C514.5,272.16,533.88,245,533.88,215.94Zm-5.67,0c0,26.93-18.37,52.36-51.73,71.62-35,20.2-80.93,30.29-126.88,30.3s-91.9-10.1-126.88-30.3C189.36,268.3,171,242.87,171,215.94s18.37-52.36,51.73-71.62c35-20.19,80.93-30.29,126.88-30.29s91.9,10.09,126.88,30.29C509.84,163.58,528.21,189,528.21,215.94Z" transform="translate(0.72 0.58)"/><path class="cls-11" d="M478.63,215.94c0-20.59-13.66-39.81-38.45-54.12C390.24,133,309,133,259,161.82c-24.8,14.31-38.45,33.53-38.45,54.12s13.65,39.81,38.45,54.13c25,14.42,57.78,21.62,90.58,21.62s65.61-7.2,90.58-21.62C465,255.75,478.63,236.53,478.63,215.94Zm-6.33,0c0,18.23-12.53,35.51-35.28,48.64-48.21,27.83-126.63,27.83-174.84,0-22.75-13.13-35.28-30.41-35.28-48.64s12.53-35.5,35.28-48.64c24.11-13.91,55.76-20.87,87.42-20.87s63.31,7,87.41,20.87C459.77,180.44,472.3,197.71,472.3,215.94Z" transform="translate(0.72 0.58)"/><path class="cls-12" d="M423.38,215.94c0-12.14-7.93-23.41-22.33-31.72-28.37-16.38-74.53-16.38-102.9,0-14.4,8.31-22.33,19.58-22.33,31.72s7.93,23.41,22.33,31.73C312.34,255.85,331,260,349.6,260s37.26-4.09,51.45-12.28C415.45,239.35,423.38,228.08,423.38,215.94Zm-7,0c0,9.54-6.69,18.65-18.83,25.66-26.44,15.27-69.46,15.27-95.9,0-12.14-7-18.83-16.12-18.83-25.66s6.69-18.65,18.83-25.66c13.22-7.63,30.59-11.45,48-11.45s34.73,3.82,47.95,11.45C409.69,197.29,416.38,206.41,416.38,215.94Z" transform="translate(0.72 0.58)"/><path class="cls-13" d="M-.72,67.71V299.8L519.56-.58H128C95,16.81,45.3,43-.72,67.71Z" transform="translate(0.72 0.58)"/><g class="cls-14"><path class="cls-15" d="M113.12,35.52a15.1,15.1,0,0,1-6.84,11.84c-3.77,2.18-6.84.41-6.84-4a15.13,15.13,0,0,1,6.84-11.84C110.06,29.39,113.12,31.16,113.12,35.52Z" transform="translate(0.72 0.58)"/><ellipse class="cls-16" cx="124.2" cy="49.81" rx="14.52" ry="8.39" transform="translate(19.68 133.05) rotate(-60)"/><ellipse class="cls-17" cx="142.13" cy="60.16" rx="19.38" ry="11.19" transform="translate(19.68 153.74) rotate(-60)"/><ellipse class="cls-18" cx="160.05" cy="70.51" rx="24.23" ry="13.99" transform="translate(19.68 174.44) rotate(-60)"/><ellipse class="cls-19" cx="177.97" cy="80.86" rx="29.08" ry="16.79" transform="translate(19.68 195.14) rotate(-60)"/></g><g class="cls-14"><path class="cls-20" d="M24.56,27.19a4.61,4.61,0,0,1-2.1,3.63c-1.16.67-2.1.13-2.1-1.21A4.64,4.64,0,0,1,22.46,26C23.62,25.31,24.56,25.85,24.56,27.19Z" transform="translate(0.72 0.58)"/><path class="cls-21" d="M31.11,29.76A7,7,0,0,1,28,35.22c-1.74,1-3.15.19-3.15-1.82A7,7,0,0,1,28,27.94C29.7,26.93,31.11,27.75,31.11,29.76Z" transform="translate(0.72 0.58)"/><path class="cls-22" d="M37.66,32.32a9.29,9.29,0,0,1-4.2,7.29c-2.33,1.34-4.21.25-4.21-2.43a9.27,9.27,0,0,1,4.21-7.28C35.78,28.56,37.66,29.64,37.66,32.32Z" transform="translate(0.72 0.58)"/><path class="cls-23" d="M44.21,34.89A11.62,11.62,0,0,1,39,44c-2.9,1.67-5.25.31-5.25-3A11.61,11.61,0,0,1,39,31.86C41.86,30.18,44.21,31.54,44.21,34.89Z" transform="translate(0.72 0.58)"/><path class="cls-24" d="M50.76,37.46a14,14,0,0,1-6.31,10.93c-3.48,2-6.31.38-6.31-3.65a14,14,0,0,1,6.31-10.92C47.94,31.8,50.76,33.44,50.76,37.46Z" transform="translate(0.72 0.58)"/></g><g class="cls-14"><path class="cls-25" d="M238,27.19a4.61,4.61,0,0,1-2.1,3.63c-1.16.67-2.1.13-2.1-1.21a4.64,4.64,0,0,1,2.1-3.63C237.09,25.31,238,25.85,238,27.19Z" transform="translate(0.72 0.58)"/><path class="cls-26" d="M244.58,29.76a7,7,0,0,1-3.15,5.46c-1.74,1-3.15.19-3.15-1.82a7,7,0,0,1,3.15-5.46C243.17,26.93,244.58,27.75,244.58,29.76Z" transform="translate(0.72 0.58)"/><path class="cls-27" d="M251.13,32.32a9.29,9.29,0,0,1-4.2,7.29c-2.32,1.34-4.2.25-4.2-2.43a9.29,9.29,0,0,1,4.2-7.28C249.25,28.56,251.13,29.64,251.13,32.32Z" transform="translate(0.72 0.58)"/><path class="cls-28" d="M257.68,34.89A11.64,11.64,0,0,1,252.43,44c-2.9,1.67-5.26.31-5.26-3a11.62,11.62,0,0,1,5.26-9.1C255.33,30.18,257.68,31.54,257.68,34.89Z" transform="translate(0.72 0.58)"/><path class="cls-29" d="M264.24,37.46a14,14,0,0,1-6.31,10.93c-3.49,2-6.31.38-6.31-3.65a13.92,13.92,0,0,1,6.31-10.92C261.41,31.8,264.24,33.44,264.24,37.46Z" transform="translate(0.72 0.58)"/></g><g class="cls-14"><path class="cls-30" d="M29.1,91.27A4.63,4.63,0,0,1,27,94.9c-1.16.67-2.1.13-2.1-1.21A4.63,4.63,0,0,1,27,90.06C28.16,89.39,29.1,89.93,29.1,91.27Z" transform="translate(0.72 0.58)"/><path class="cls-31" d="M35.65,93.84a6.94,6.94,0,0,1-3.15,5.45c-1.74,1-3.15.19-3.15-1.82A7,7,0,0,1,32.5,92C34.24,91,35.65,91.83,35.65,93.84Z" transform="translate(0.72 0.58)"/><path class="cls-32" d="M42.2,96.4a9.29,9.29,0,0,1-4.2,7.28c-2.32,1.34-4.21.26-4.21-2.42A9.3,9.3,0,0,1,38,94C40.32,92.64,42.2,93.72,42.2,96.4Z" transform="translate(0.72 0.58)"/><path class="cls-33" d="M48.75,99a11.61,11.61,0,0,1-5.25,9.1c-2.91,1.68-5.26.32-5.26-3a11.59,11.59,0,0,1,5.26-9.1C46.4,94.26,48.75,95.62,48.75,99Z" transform="translate(0.72 0.58)"/><path class="cls-34" d="M55.3,101.54A13.92,13.92,0,0,1,49,112.46c-3.48,2-6.3.39-6.3-3.64A14,14,0,0,1,49,97.89C52.48,95.88,55.3,97.51,55.3,101.54Z" transform="translate(0.72 0.58)"/></g><polygon class="cls-35" points="78.79 240.72 33.26 267 33.26 265.09 78.79 238.81 78.79 240.72"/><polygon class="cls-35" points="78.79 235 33.26 261.28 33.26 259.37 78.79 233.09 78.79 235"/><polygon class="cls-35" points="78.79 229.28 33.26 255.56 33.26 253.65 78.79 227.37 78.79 229.28"/><polygon class="cls-35" points="78.79 223.56 33.26 249.84 33.26 247.93 78.79 221.65 78.79 223.56"/><polygon class="cls-35" points="78.79 217.84 33.26 244.12 33.26 242.21 78.79 215.93 78.79 217.84"/><polygon class="cls-35" points="78.79 212.12 33.26 238.4 33.26 236.49 78.79 210.21 78.79 212.12"/><polygon class="cls-35" points="78.79 206.4 33.26 232.68 33.26 230.77 78.79 204.49 78.79 206.4"/><polygon class="cls-35" points="78.79 200.68 33.26 226.96 33.26 225.05 78.79 198.77 78.79 200.68"/><polygon class="cls-35" points="78.79 194.96 33.26 221.25 33.26 219.33 78.79 193.05 78.79 194.96"/><polygon class="cls-35" points="78.79 189.24 33.26 215.53 33.26 213.61 78.79 187.33 78.79 189.24"/><polygon class="cls-35" points="78.79 184.48 33.26 210.76 33.26 206.94 78.79 180.66 78.79 184.48"/><polygon class="cls-35" points="133.44 209.16 87.91 235.45 87.91 233.54 133.44 207.25 133.44 209.16"/><polygon class="cls-35" points="133.44 203.45 87.91 229.73 87.91 227.82 133.44 201.53 133.44 203.45"/><polygon class="cls-35" points="133.44 197.73 87.91 224.01 87.91 222.1 133.44 195.81 133.44 197.73"/><polygon class="cls-35" points="133.44 192.01 87.91 218.29 87.91 216.38 133.44 190.09 133.44 192.01"/><polygon class="cls-35" points="133.44 186.29 87.91 212.57 87.91 210.66 133.44 184.37 133.44 186.29"/><polygon class="cls-35" points="133.44 180.57 87.91 206.85 87.91 204.94 133.44 178.66 133.44 180.57"/><polygon class="cls-35" points="133.44 174.85 87.91 201.13 87.91 199.22 133.44 172.94 133.44 174.85"/><polygon class="cls-35" points="133.44 170.09 87.91 196.37 87.91 192.54 133.44 166.26 133.44 170.09"/><polygon class="cls-35" points="188.09 177.61 142.56 203.9 142.56 201.98 188.09 175.7 188.09 177.61"/><polygon class="cls-35" points="188.09 171.89 142.56 198.18 142.56 196.26 188.09 169.98 188.09 171.89"/><polygon class="cls-35" points="188.09 166.17 142.56 192.46 142.56 190.54 188.09 164.26 188.09 166.17"/><polygon class="cls-35" points="188.09 160.45 142.56 186.74 142.56 184.82 188.09 158.54 188.09 160.45"/><polygon class="cls-35" points="188.09 154.73 142.56 181.02 142.56 179.1 188.09 152.82 188.09 154.73"/><polygon class="cls-35" points="188.09 149.97 142.56 176.25 142.56 172.43 188.09 146.15 188.09 149.97"/><polygon class="cls-35" points="242.74 146.06 197.22 172.34 197.22 170.43 242.74 144.15 242.74 146.06"/><polygon class="cls-35" points="242.74 140.34 197.22 166.62 197.22 164.71 242.74 138.43 242.74 140.34"/><polygon class="cls-35" points="242.74 135.58 197.22 161.86 197.22 158.03 242.74 131.75 242.74 135.58"/><polygon class="cls-35" points="297.39 114.51 251.87 140.79 251.87 138.88 297.39 112.59 297.39 114.51"/><polygon class="cls-35" points="297.39 108.79 251.87 135.07 251.87 133.16 297.39 106.88 297.39 108.79"/><polygon class="cls-35" points="297.39 103.07 251.87 129.35 251.87 127.44 297.39 101.16 297.39 103.07"/><polygon class="cls-35" points="297.39 98.3 251.87 124.59 251.87 120.76 297.39 94.48 297.39 98.3"/><polygon class="cls-35" points="352.04 82.95 306.52 109.24 306.52 107.33 352.04 81.04 352.04 82.95"/><polygon class="cls-35" points="352.04 77.23 306.52 103.52 306.52 101.61 352.04 75.32 352.04 77.23"/><polygon class="cls-35" points="352.04 71.52 306.52 97.8 306.52 95.89 352.04 69.6 352.04 71.52"/><polygon class="cls-35" points="352.04 65.8 306.52 92.08 306.52 90.17 352.04 63.88 352.04 65.8"/><polygon class="cls-35" points="352.04 60.08 306.52 86.36 306.52 84.45 352.04 58.16 352.04 60.08"/><polygon class="cls-35" points="352.04 55.31 306.52 81.6 306.52 77.77 352.04 51.49 352.04 55.31"/><polygon class="cls-35" points="406.69 51.4 361.17 77.68 361.17 75.77 406.69 49.49 406.69 51.4"/><polygon class="cls-35" points="406.69 45.68 361.17 71.97 361.17 70.05 406.69 43.77 406.69 45.68"/><polygon class="cls-35" points="406.69 39.96 361.17 66.25 361.17 64.33 406.69 38.05 406.69 39.96"/><polygon class="cls-35" points="406.69 34.24 361.17 60.53 361.17 58.61 406.69 32.33 406.69 34.24"/><polygon class="cls-35" points="406.69 28.52 361.17 54.81 361.17 52.89 406.69 26.61 406.69 28.52"/><polygon class="cls-35" points="406.69 22.8 361.17 49.09 361.17 47.17 406.69 20.89 406.69 22.8"/><polygon class="cls-35" points="406.69 17.08 361.17 43.37 361.17 41.46 406.69 15.17 406.69 17.08"/><polygon class="cls-35" points="406.69 12.32 361.17 38.6 361.17 34.78 406.69 8.5 406.69 12.32"/><path class="cls-36" d="M522.48,104.13a16.76,16.76,0,0,0,7.57,13.12c4.18,2.41,7.57.45,7.57-4.37a16.76,16.76,0,0,0-7.57-13.12C525.87,97.35,522.48,99.31,522.48,104.13Z" transform="translate(0.72 0.58)"/><path class="cls-37" d="M498.84,113.4c0,7.25,5.09,16.06,11.36,19.69s11.37.68,11.37-6.57-5.09-16.06-11.37-19.69S498.84,106.15,498.84,113.4Z" transform="translate(0.72 0.58)"/><path class="cls-38" d="M475.19,122.66c0,9.67,6.8,21.43,15.17,26.27s15.17.92,15.17-8.76-6.79-21.43-15.17-26.27S475.19,113,475.19,122.66Z" transform="translate(0.72 0.58)"/><ellipse class="cls-39" cx="470.52" cy="142.87" rx="15.49" ry="26.82" transform="translate(-7.68 254.98) rotate(-30)"/><ellipse class="cls-40" cx="450.68" cy="154.33" rx="18.59" ry="32.2" transform="translate(-16.06 246.6) rotate(-30)"/><path class="cls-41" d="M228,119.92a11.88,11.88,0,0,1-5.37,9.3c-3,1.71-5.37.32-5.37-3.1a11.87,11.87,0,0,1,5.37-9.3C225.62,115.1,228,116.49,228,119.92Z" transform="translate(0.72 0.58)"/><path class="cls-42" d="M244.79,126.49c0,5.14-3.61,11.39-8.06,14s-8.07.49-8.07-4.65,3.62-11.4,8.07-14S244.79,121.34,244.79,126.49Z" transform="translate(0.72 0.58)"/><path class="cls-43" d="M261.56,133.06c0,6.86-4.81,15.2-10.76,18.63s-10.76.65-10.76-6.21,4.82-15.21,10.76-18.64S261.56,126.19,261.56,133.06Z" transform="translate(0.72 0.58)"/><ellipse class="cls-44" cx="264.88" cy="147.39" rx="19.03" ry="10.99" transform="translate(5.51 303.67) rotate(-60)"/><ellipse class="cls-45" cx="278.95" cy="155.52" rx="22.84" ry="13.19" transform="matrix(0.5, -0.87, 0.87, 0.5, 5.51, 319.92)"/><ellipse class="cls-46" cx="257.93" cy="77.87" rx="7.26" ry="12.57" transform="matrix(0.87, -0.5, 0.5, 0.87, -3.66, 139.98)"/><path class="cls-2" d="M252.86,73.3v5.47a1,1,0,0,0,.47.8l9.2,5.31c.25.15.46,0,.46-.26V79.14a1,1,0,0,0-.46-.8l-.32-.18V72.38a.73.73,0,0,0-.33-.57c-.19-.11-.33,0-.33.19v5.77L253.33,73C253.07,72.88,252.86,73,252.86,73.3Zm4.52,7.14c0-.1.07-.13.15-.09L262.07,83a.32.32,0,0,1,.15.25v0c0,.1-.07.14-.15.09l-4.54-2.63a.32.32,0,0,1-.15-.25Zm0-.71c0-.09.07-.13.15-.08l4.54,2.62a.33.33,0,0,1,.15.25v0c0,.09-.07.13-.15.08L257.53,80a.33.33,0,0,1-.15-.25Zm0-.7c0-.1.07-.13.15-.09l4.54,2.63a.32.32,0,0,1,.15.25v0c0,.1-.07.13-.15.09l-4.54-2.63a.32.32,0,0,1-.15-.25Zm-3.17-1.12c0-.62.43-.87,1-.56a2.16,2.16,0,0,1,1,1.69c0,.62-.44.87-1,.56A2.15,2.15,0,0,1,254.21,77.91Zm-.57-3.33c0-.19.13-.27.3-.17l8,4.6a.71.71,0,0,1,.3.53v.65c0,.19-.14.27-.3.17l-8-4.61a.65.65,0,0,1-.3-.52Z" transform="translate(0.72 0.58)"/><ellipse class="cls-47" cx="512.36" cy="50.91" rx="8.42" ry="14.58" transform="translate(43.91 263.58) rotate(-30)"/><path class="cls-2" d="M506.65,53l1.3.76c.37.21.66,0,.66-.5V49.37a1.57,1.57,0,0,0-.66-1.26l-1.3-.75c-.37-.21-.66,0-.66.5v3.9A1.56,1.56,0,0,0,506.65,53Z" transform="translate(0.72 0.58)"/><path class="cls-2" d="M516.66,53.14l.22.12,1.08.63.21.12a1.23,1.23,0,0,1,.56,1v4.37c0,.36-.25.5-.56.32l-.21-.12-1.08-.62-.22-.12a1.25,1.25,0,0,1-.56-1V53.47C516.1,53.11,516.35,53,516.66,53.14Z" transform="translate(0.72 0.58)"/><path class="cls-2" d="M512.36,43.45a12.28,12.28,0,0,1,5.55,9.61v2.13l-1-.57V52.49a10.1,10.1,0,0,0-4.56-7.91c-2.52-1.45-4.57-.27-4.57,2.64v2.13l-1-.57V46.65C506.81,43.12,509.3,41.68,512.36,43.45Z" transform="translate(0.72 0.58)"/><ellipse class="cls-48" cx="432.71" cy="89.49" rx="11.59" ry="20.07" transform="translate(13.95 228.93) rotate(-30)"/><polygon class="cls-2" points="438.71 92.5 438.71 92.5 426.11 79.18 426.08 89.86 438.71 92.5"/><polygon class="cls-2" points="438.71 102.15 426.09 94.86 426.09 91.79 438.71 99.08 438.71 102.15"/><ellipse class="cls-49" cx="477.31" cy="220.77" rx="11.15" ry="19.31" transform="translate(-45.72 268.82) rotate(-30)"/><path class="cls-2" d="M483.34,216.68l0,5,0,10c-.09.78-1,.9-2.21.23s-2.95-2.7-2.95-3.6c-.25-1.3,1-1,2-.49a2.5,2.5,0,0,1,1,.86l0-8-8-3.68,0,8.38c-.09.79-1,.9-2.21.23s-2.94-2.7-2.95-3.6c0-.66.67-1.17,1.92-.45a5.9,5.9,0,0,1,1.07.81l0-6.37v-5l2.17,1,8,3.69Z" transform="translate(0.72 0.58)"/><g class="cls-1"><polygon class="cls-50" points="269.57 204.29 269.61 217.17 271.2 218.09 271.16 205.21 269.57 204.29"/><path class="cls-51" d="M313.43,179.82c19-11,49.88-11,68.78,0L411,196.53c9.39,5.46,14.09,12.61,14.11,19.78l0,8.71-.38.67c-1.29-5.95-5.86-11.71-13.72-16.28l-28.82-16.72c-18.9-11-49.76-11-68.78,0l-43,24.82,0-12.87Z" transform="translate(0.72 0.58)"/><path class="cls-52" d="M427.4,216.3l0,12.88c0,7.6-5,15.21-15,21l-43,24.82,0-12.88,43-24.82c5.83-3.37,10-7.36,12.39-11.61l.38-.67A18.54,18.54,0,0,0,427.4,216.3Z" transform="translate(0.72 0.58)"/><path class="cls-50" d="M268.85,203.71l1.59.93,43-24.82c19-11,49.88-11,68.78,0L411,196.53c18.9,11,18.8,28.86-.23,39.84l-43,24.82,1.59.93,43-24.82c19.91-11.5,20-30.2.23-41.69l-28.82-16.72c-19.77-11.49-52.06-11.49-72,0Z" transform="translate(0.72 0.58)"/><polygon class="cls-50" points="368.54 261.77 368.57 274.65 370.16 275.57 370.13 262.7 368.54 261.77"/></g><path class="cls-53" d="M267.18,231.34a33,33,0,0,0,7.46-6,46,46,0,0,0,8.41-12.85,36,36,0,0,0,3.24-14.21,19.18,19.18,0,0,0-1.16-6.84,11.72,11.72,0,0,1,4,.06,9.6,9.6,0,0,1,6.73,5.18c.08.16.17.33.25.5a16.12,16.12,0,0,1,1.3,4.48,19.63,19.63,0,0,1,.2,2.11c0,.36,0,.74,0,1.12a29.91,29.91,0,0,1-.48,5.26,37.31,37.31,0,0,1-1.38,5.38c-.4,1.19-.86,2.39-1.38,3.56a46,46,0,0,1-3.17,6l-.52.82a47.93,47.93,0,0,1-2.85,3.89c-.6.74-1.23,1.45-1.87,2.14l-.87.89a34.28,34.28,0,0,1-3.67,3.21l-1,.69c-.64.45-1.3.86-2,1.25a2.88,2.88,0,0,0-.93.91,5.21,5.21,0,0,0-.28.52,2.9,2.9,0,0,0-.24,1.09v.16a.09.09,0,0,1,0,.05s0,.07,0,.11a.43.43,0,0,1,0,.05s0,.06,0,.08a.14.14,0,0,1,0,.06l0,.07,0,0,0,.06a.08.08,0,0,0,0,0,.21.21,0,0,0,0,.06l0,0,.05.05,0,0,0,0-11.37-6.61a1,1,0,0,1-.42-.93A3.16,3.16,0,0,1,267.18,231.34Z" transform="translate(0.72 0.58)"/><path class="cls-54" d="M267.48,189.43c5.15-3,9.81-3.25,13.17-1.29l9.46,5.49c-3.37-2-8-1.68-13.17,1.29-10.22,5.9-18.48,20.2-18.45,32,0,5.83,2.08,9.94,5.4,11.87l-9.45-5.5c-3.33-1.93-5.39-6-5.4-11.87C249,209.63,257.26,195.33,267.48,189.43Z" transform="translate(0.72 0.58)"/><path class="cls-55" d="M276.94,194.92c-10.22,5.9-18.48,20.2-18.45,32s8.35,16.48,18.57,10.58,18.48-20.21,18.44-31.95S287.16,189,276.94,194.92Z" transform="translate(0.72 0.58)"/><g class="cls-1"><path class="cls-56" d="M267.05,183.92a21.52,21.52,0,0,1,8.6-3,11.82,11.82,0,0,1,7.12,1.44l11.37,6.6a11.89,11.89,0,0,0-7.12-1.43,21.21,21.21,0,0,0-8.6,3,3.21,3.21,0,0,0-1.46,2.52,1,1,0,0,0,.43.94L266,187.38a1,1,0,0,1-.43-.94A3.23,3.23,0,0,1,267.05,183.92Z" transform="translate(0.72 0.58)"/><path class="cls-57" d="M278.42,190.53a3.21,3.21,0,0,0-1.46,2.52c0,.93.66,1.3,1.47.84,4-2.3,7.66-3,10.72-2.43a9.7,9.7,0,0,1,7,5.68,18.18,18.18,0,0,1,1.53,7.71,35.93,35.93,0,0,1-3.24,14.2A46,46,0,0,1,286,231.91a33.32,33.32,0,0,1-7.46,6,3.16,3.16,0,0,0-1.45,2.52c0,.92.65,1.3,1.46.83a41.73,41.73,0,0,0,12.34-11.47,52.5,52.5,0,0,0,8-15.78,37.79,37.79,0,0,0,1.71-10.89c0-5.25-1.42-9.34-3.81-12a11.23,11.23,0,0,0-9.75-3.59A21.21,21.21,0,0,0,278.42,190.53Z" transform="translate(0.72 0.58)"/></g><path class="cls-58" d="M321.26,228.33c13.11,7.36,34.07,7.14,46.81-.47,6.27-3.75,9.38-8.59,9.37-13.42v2.86c0,4.82-3.1,9.66-9.37,13.41-12.74,7.62-33.7,7.83-46.81.47-6.67-3.74-10-8.71-10-13.7v-2.85C311.24,219.62,314.59,224.59,321.26,228.33Z" transform="translate(0.72 0.58)"/><path class="cls-59" d="M321.26,228.33c13.11,7.36,34.07,7.15,46.81-.47a24.57,24.57,0,0,0,5.4-4.26,14,14,0,0,0,3.86-7.57c.77-5.5-2.55-11.15-9.92-15.29-12.5-7-32.13-7.15-45-.55-.63.33-1.24.67-1.84,1C307.85,208.83,308.14,221,321.26,228.33Z" transform="translate(0.72 0.58)"/><path class="cls-60" d="M322.43,200.19l21.88,7.59,29.16,15.82,3.86-7.57c.77-5.5-2.55-11.15-9.92-15.29C354.91,193.73,335.28,193.59,322.43,200.19Z" transform="translate(0.72 0.58)"/><path class="cls-61" d="M349.82,177.77v30a2.71,2.71,0,0,1-1.6,2.23,8.46,8.46,0,0,1-7.74,0,2.74,2.74,0,0,1-1.63-2.26v-30Z" transform="translate(0.72 0.58)"/><path class="cls-62" d="M320,106.37c1.82-1.05,3.47-1.14,4.66-.45l3.34,1.94c-1.19-.69-2.83-.59-4.65.46a14.35,14.35,0,0,0-6.53,11.29c0,2.07.74,3.52,1.91,4.2l-3.34-1.94c-1.18-.68-1.9-2.14-1.91-4.2A14.4,14.4,0,0,1,320,106.37Z" transform="translate(0.72 0.58)"/><path class="cls-63" d="M323.37,108.32a14.35,14.35,0,0,0-6.53,11.29c0,4.16,3,5.83,6.57,3.75a14.4,14.4,0,0,0,6.52-11.3C329.92,107.9,327,106.23,323.37,108.32Z" transform="translate(0.72 0.58)"/><path class="cls-64" d="M357.13,156.84c.81-.5,1.86-1.23,2.61-1.81a18.75,18.75,0,0,0,1.83-1.62,22.94,22.94,0,0,0,4-5.23,21.33,21.33,0,0,0,1.24-2.6,34.81,34.81,0,0,0,1.07-3.38,23.37,23.37,0,0,0,.46-2.76c.08-.7.11-1.64.12-2.34,0,3.53-2.27,7.05-6.81,9.78-9.37,5.64-24.87,5.8-34.63.35-5-2.8-7.55-6.53-7.54-10.27h0c0,.55,0,1.28.07,1.82a23,23,0,0,0,1.49,6.54,22.29,22.29,0,0,0,1.59,3.28,23,23,0,0,0,4,5,23.9,23.9,0,0,0,4.93,3.63c.77.41,1.82.94,2.63,1.27a22.32,22.32,0,0,0,2.88,1c.36.09.85.23,1.22.31a23.48,23.48,0,0,0,2.45.42,25.77,25.77,0,0,0,7.09-.07,26.15,26.15,0,0,0,3.68-.81A24.66,24.66,0,0,0,357.13,156.84Z" transform="translate(0.72 0.58)"/><path class="cls-65" d="M357.13,156.84c.81-.5,1.86-1.23,2.61-1.81a18.75,18.75,0,0,0,1.83-1.62,22.94,22.94,0,0,0,4-5.23,21.33,21.33,0,0,0,1.24-2.6,34.81,34.81,0,0,0,1.07-3.38,23.37,23.37,0,0,0,.46-2.76c.08-.7.11-1.64.12-2.34,0,3.53-2.27,7.05-6.81,9.78-9.37,5.64-24.87,5.8-34.63.35-5-2.8-7.55-6.53-7.54-10.27h0c0,.55,0,1.28.07,1.82a23,23,0,0,0,1.49,6.54,22.29,22.29,0,0,0,1.59,3.28,23,23,0,0,0,4,5,23.9,23.9,0,0,0,4.93,3.63c.77.41,1.82.94,2.63,1.27a22.32,22.32,0,0,0,2.88,1c.36.09.85.23,1.22.31a23.48,23.48,0,0,0,2.45.42,25.77,25.77,0,0,0,7.09-.07,26.15,26.15,0,0,0,3.68-.81A24.66,24.66,0,0,0,357.13,156.84Z" transform="translate(0.72 0.58)"/><path class="cls-66" d="M361,107.42l-2.32-1.3c8.42,4.7,8.69,12.44.62,17.3s-21.45,5-29.87.31-8.69-12.44-.62-17.3l-2.43,1.35c-9.37,5.63-9,14.61.71,20s25.27,5.29,34.63-.35S370.74,112.87,361,107.42Z" transform="translate(0.72 0.58)"/><path class="cls-67" d="M368.46,137.1l.06-19.4c0,3.52-2.28,7-6.82,9.78-9.36,5.64-24.87,5.79-34.63.35-5-2.8-7.54-6.54-7.53-10.27l-.06,19.4c0,3.74,2.52,7.47,7.54,10.27,9.76,5.45,25.26,5.29,34.63-.35C366.19,144.15,368.45,140.63,368.46,137.1Z" transform="translate(0.72 0.58)"/><polygon class="cls-68" points="358.27 144.21 369.42 137.73 367.55 136.66 358.27 144.21"/><path class="cls-69" d="M317.1,117.77l1.87,1.08.57-.34v-1s0,.1,0,.15a7.54,7.54,0,0,1,.1-1.42Z" transform="translate(0.72 0.58)"/><path class="cls-70" d="M318.92,144.9c0,12.22,8.59,27.16,19.23,33.3,5.35,3.09,10.21,3.37,13.72,1.33L363,173.06c-3.5,2-8.37,1.75-13.72-1.34A38.05,38.05,0,0,1,337,159.49a27.18,27.18,0,0,1-2.84-1c-.81-.34-1.85-.87-2.63-1.28a24.16,24.16,0,0,1-4.92-3.62,23,23,0,0,1-4-5,22.29,22.29,0,0,1-1.59-3.28,28.36,28.36,0,0,1-.93-3,28.64,28.64,0,0,1-.56-3.56c-.06-.55-.05-1.28-.06-1.83l.05-18.45-.57.34Z" transform="translate(0.72 0.58)"/><path class="cls-71" d="M359.37,168.25l.05-26.05,11.15-6.48-.05,26.05c0,6.67-2.38,11.36-6.18,13.56l-11.15,6.48C357,179.6,359.35,174.91,359.37,168.25Z" transform="translate(0.72 0.58)"/><path class="cls-72" d="M317.1,117.77l-.05,26.05c0,13.41,9.42,29.79,21.09,36.53s21.19,1.31,21.23-12.1l.05-26.05-1.87-1.08-.05,26c0,12.22-8.72,17.17-19.35,11s-19.26-21.08-19.23-33.3l.05-26.05Z" transform="translate(0.72 0.58)"/><path class="cls-73" d="M364,131.76c1.82-1,3.47-1.14,4.66-.45l3.34,1.94c-1.19-.69-2.84-.59-4.66.46A14.37,14.37,0,0,0,360.82,145c0,2.07.74,3.52,1.91,4.2l-3.34-1.94c-1.18-.68-1.91-2.14-1.91-4.2A14.38,14.38,0,0,1,364,131.76Z" transform="translate(0.72 0.58)"/><path class="cls-74" d="M367.34,133.71A14.37,14.37,0,0,0,360.82,145c0,4.16,2.95,5.83,6.57,3.75a14.4,14.4,0,0,0,6.52-11.3C373.9,133.29,371,131.62,367.34,133.71Z" transform="translate(0.72 0.58)"/><path class="cls-75" d="M329.41,123.72c8.42,4.7,21.79,4.57,29.87-.3,4.19-2.52,6.13-5.83,5.85-9.08Q363.59,96.48,362,78.62a4.1,4.1,0,0,0-.06-.49c-.08-.38-.16-.9-.27-1.26-.22-.74-.54-1.71-.83-2.42a17.63,17.63,0,0,0-7.58-8.18,18.79,18.79,0,0,0-8.57-2.37,8.45,8.45,0,0,0-.87,0h-.37a18.94,18.94,0,0,0-4.73.77c-.5.15-1.41.47-2.08.76a18.87,18.87,0,0,0-5.05,3.24,17.24,17.24,0,0,0-2.26,2.46c-.21.3-.53.7-.72,1a20.84,20.84,0,0,0-1.16,2.13A15.82,15.82,0,0,0,326.32,78c0,.18-.05.36-.07.54v0c0,.35-.07.71-.1,1.06h0q-1.61,17.32-3.2,34.63C322.63,117.66,324.79,121.15,329.41,123.72Z" transform="translate(0.72 0.58)"/><path class="cls-76" d="M326.15,79.58h0c.22,2.55,2.05,5.07,5.49,7,7.13,4,18.47,3.86,25.32-.26,3.77-2.27,5.39-5.29,4.9-8.19-.08-.38-.16-.9-.27-1.26-.22-.74-.54-1.71-.84-2.42a17.6,17.6,0,0,0-7.57-8.18,18.87,18.87,0,0,0-8.47-2.37,8.45,8.45,0,0,0-.87,0h-.37a18.94,18.94,0,0,0-4.73.77c-.5.15-1.41.47-2.08.76a18.87,18.87,0,0,0-5.05,3.24,17.24,17.24,0,0,0-2.26,2.46c-.21.3-.53.7-.72,1a20.84,20.84,0,0,0-1.16,2.13A15.82,15.82,0,0,0,326.32,78c0,.18-.05.36-.07.54v0C326.22,78.87,326.18,79.23,326.15,79.58Z" transform="translate(0.72 0.58)"/><path class="cls-77" d="M363.3,286.83a33,33,0,0,0,7.46-6,45.85,45.85,0,0,0,8.41-12.85,36,36,0,0,0,3.24-14.21,19.12,19.12,0,0,0-1.16-6.83,12,12,0,0,1,4,0,9.59,9.59,0,0,1,6.72,5.18c.09.16.17.33.26.51a16,16,0,0,1,1.3,4.47c.1.67.16,1.38.2,2.11,0,.37,0,.74,0,1.12a29.83,29.83,0,0,1-.48,5.26,37,37,0,0,1-1.39,5.38c-.4,1.2-.86,2.39-1.37,3.57a47.15,47.15,0,0,1-3.17,6l-.52.82a46.25,46.25,0,0,1-2.85,3.89c-.61.74-1.23,1.45-1.87,2.14l-.87.9a36.38,36.38,0,0,1-3.67,3.2q-.48.36-1,.69c-.64.45-1.3.87-2,1.25a2.72,2.72,0,0,0-.93.92,3.25,3.25,0,0,0-.28.52,2.69,2.69,0,0,0-.25,1.08c0,.06,0,.11,0,.17s0,0,0,0,0,.07,0,.11l0,.05a.29.29,0,0,0,0,.09l0,.05,0,.07s0,0,0,0l0,.06,0,.05a.1.1,0,0,1,0,.05s0,0,0,0l.05,0,0,0s0,0,.05,0l-11.37-6.6a1,1,0,0,1-.43-.94A3.23,3.23,0,0,1,363.3,286.83Z" transform="translate(0.72 0.58)"/><path class="cls-78" d="M363.6,244.92c5.14-3,9.8-3.25,13.17-1.29l9.45,5.49c-3.36-2-8-1.68-13.17,1.29-10.22,5.9-18.47,20.21-18.44,32,0,5.83,2.08,9.94,5.4,11.87l-9.46-5.49c-3.32-1.93-5.38-6-5.4-11.87C345.12,265.12,353.38,250.82,363.6,244.92Z" transform="translate(0.72 0.58)"/><path class="cls-79" d="M373.05,250.41c-10.22,5.9-18.47,20.21-18.44,32s8.34,16.48,18.56,10.58,18.48-20.2,18.45-31.95S383.27,244.51,373.05,250.41Z" transform="translate(0.72 0.58)"/><g class="cls-1"><path class="cls-80" d="M363.16,239.42a21.3,21.3,0,0,1,8.61-3,11.72,11.72,0,0,1,7.11,1.43l11.37,6.61a11.79,11.79,0,0,0-7.11-1.44,21.61,21.61,0,0,0-8.61,3,3.24,3.24,0,0,0-1.45,2.52,1,1,0,0,0,.42.94l-11.37-6.61a1,1,0,0,1-.42-.93A3.21,3.21,0,0,1,363.16,239.42Z" transform="translate(0.72 0.58)"/><path class="cls-81" d="M374.53,246a3.24,3.24,0,0,0-1.45,2.52c0,.93.66,1.31,1.46.84,4-2.3,7.66-3,10.73-2.43a9.69,9.69,0,0,1,7,5.69,18.25,18.25,0,0,1,1.53,7.7,36,36,0,0,1-3.24,14.21,46,46,0,0,1-8.41,12.85,33.27,33.27,0,0,1-7.46,6,3.19,3.19,0,0,0-1.46,2.52c0,.92.66,1.3,1.47.83A42.07,42.07,0,0,0,387,285.33a53.14,53.14,0,0,0,8-15.79,37.68,37.68,0,0,0,1.71-10.89c0-5.25-1.42-9.34-3.82-12a11.2,11.2,0,0,0-9.74-3.59A21.61,21.61,0,0,0,374.53,246Z" transform="translate(0.72 0.58)"/></g><polygon class="cls-82" points="512.97 346.19 542.88 328.87 542.99 254.74 513.08 272.06 512.97 346.19"/><polygon class="cls-83" points="513.08 272.06 542.99 254.74 508.77 234.99 478.86 252.31 513.08 272.06"/><polygon class="cls-84" points="508.98 274.43 513.08 272.06 478.86 252.31 476.54 255.7 508.98 274.43"/><polygon class="cls-85" points="508.88 346.53 512.97 346.19 513.08 272.06 508.98 274.43 508.88 346.53"/><polygon class="cls-86" points="476.54 255.7 476.43 327.8 508.88 346.53 508.98 274.43 476.54 255.7"/><ellipse class="cls-87" cx="489.88" cy="310.68" rx="10.26" ry="17.71" transform="translate(-89.05 288.78) rotate(-30.16)"/><path class="cls-88" d="M492.78,301.22c-3.6-2.08-6.53-.41-6.55,3.73a14.34,14.34,0,0,0,6.5,11.26c3.61,2.08,6.54.41,6.55-3.73A14.34,14.34,0,0,0,492.78,301.22Z" transform="translate(0.72 0.58)"/><path class="cls-89" d="M492.78,270.31c-4.52-2.61-8.2-.51-8.22,4.69s3.64,11.53,8.17,14.14,8.2.52,8.22-4.68S497.31,272.93,492.78,270.31Z" transform="translate(0.72 0.58)"/><path class="cls-90" d="M492.78,272.23c-3.6-2.07-6.53-.41-6.55,3.73a14.34,14.34,0,0,0,6.5,11.26c3.61,2.08,6.54.41,6.55-3.73A14.34,14.34,0,0,0,492.78,272.23Z" transform="translate(0.72 0.58)"/><polygon class="cls-91" points="174.85 219.66 160.28 211.22 160.22 192.07 174.8 200.51 174.85 219.66"/><polygon class="cls-92" points="174.8 200.51 160.22 192.07 176.9 182.44 191.47 190.88 174.8 200.51"/><polygon class="cls-93" points="176.79 201.66 174.8 200.51 191.47 190.88 192.6 192.53 176.79 201.66"/><polygon class="cls-94" points="176.84 219.82 174.85 219.66 174.8 200.51 176.79 201.66 176.84 219.82"/><polygon class="cls-95" points="192.6 192.53 192.65 210.69 176.84 219.82 176.79 201.66 192.6 192.53"/><ellipse class="cls-96" cx="184" cy="206.03" rx="8.21" ry="4.76" transform="translate(-85.87 262.18) rotate(-59.84)"/><path class="cls-97" d="M184,201.07c2.38-1.37,4.32-.27,4.32,2.47A9.47,9.47,0,0,1,184,211c-2.39,1.37-4.32.27-4.33-2.47A9.46,9.46,0,0,1,184,201.07Z" transform="translate(0.72 0.58)"/></g></g></svg>