<svg xmlns="http://www.w3.org/2000/svg" xmlns:xlink="http://www.w3.org/1999/xlink" viewBox="0 0 2700 1700"><defs><style>.cls-1{mask:url(#mask);}.cls-2,.cls-4,.cls-6{mix-blend-mode:multiply;}.cls-2{fill:url(#linear-gradient);}.cls-3{mask:url(#mask-2);}.cls-4{fill:url(#linear-gradient-2);}.cls-5{mask:url(#mask-3);}.cls-6{fill:url(#linear-gradient-3);}.cls-7{fill:#211748;}.cls-8{fill:url(#radial-gradient);}.cls-9{mask:url(#mask-4);}.cls-10{opacity:0.3;fill:url(#linear-gradient-4);}.cls-11{mask:url(#mask-5);}.cls-12{fill:url(#linear-gradient-5);}.cls-13{mask:url(#mask-6);}.cls-14{fill:url(#linear-gradient-6);}.cls-15{fill:#fff;}.cls-16{fill:#44388c;}.cls-17{fill:url(#radial-gradient-2);}.cls-18{fill:url(#linear-gradient-7);}.cls-19{fill:url(#linear-gradient-8);}.cls-20{fill:url(#linear-gradient-9);}.cls-21{fill:url(#linear-gradient-10);}.cls-22{fill:url(#radial-gradient-3);}.cls-23{fill:url(#radial-gradient-4);}.cls-24{fill:url(#linear-gradient-11);}.cls-25{fill:url(#linear-gradient-12);}.cls-26{fill:url(#linear-gradient-13);}.cls-27{fill:url(#radial-gradient-5);}.cls-28{fill:url(#linear-gradient-14);}.cls-29{fill:url(#linear-gradient-15);}.cls-30{fill:url(#linear-gradient-16);}.cls-31{fill:url(#linear-gradient-17);}.cls-32{fill:url(#radial-gradient-6);}.cls-33{fill:url(#radial-gradient-7);}.cls-34{opacity:0.2;}.cls-35{fill:url(#radial-gradient-8);}.cls-36{fill:url(#linear-gradient-18);}.cls-37{fill:url(#linear-gradient-19);}.cls-38{fill:url(#linear-gradient-20);}.cls-39{fill:url(#linear-gradient-21);}.cls-40{fill:url(#linear-gradient-22);}.cls-41{fill:url(#radial-gradient-9);}.cls-42{fill:url(#radial-gradient-10);}.cls-43{fill:url(#radial-gradient-11);}.cls-44{fill:url(#linear-gradient-23);}.cls-45{fill:url(#radial-gradient-12);}.cls-46{fill:url(#radial-gradient-13);}.cls-47{fill:url(#radial-gradient-14);}.cls-48,.cls-49,.cls-50,.cls-51{opacity:0.24;}.cls-48{fill:url(#radial-gradient-15);}.cls-49{fill:url(#radial-gradient-16);}.cls-50{fill:url(#radial-gradient-17);}.cls-51{fill:url(#radial-gradient-18);}.cls-52{fill:url(#radial-gradient-19);}.cls-53{fill:url(#radial-gradient-20);}.cls-54{fill:url(#radial-gradient-21);}.cls-55{fill:url(#linear-gradient-24);}.cls-56{fill:url(#linear-gradient-25);}.cls-57{fill:#efe8e8;}.cls-58{fill:url(#radial-gradient-22);}.cls-59{fill:url(#radial-gradient-23);}.cls-60{fill:url(#linear-gradient-26);}.cls-61{fill:url(#linear-gradient-27);}.cls-62{fill:url(#linear-gradient-28);}.cls-63{fill:url(#linear-gradient-29);}.cls-64{filter:url(#luminosity-noclip-6);}.cls-65{filter:url(#luminosity-noclip-5);}.cls-66{filter:url(#luminosity-noclip-4);}.cls-67{filter:url(#luminosity-noclip-3);}.cls-68{filter:url(#luminosity-noclip-2);}.cls-69{filter:url(#luminosity-noclip);}</style><filter id="luminosity-noclip" x="329.81" y="-9042" width="1191.83" height="32766" filterUnits="userSpaceOnUse" color-interpolation-filters="sRGB"><feFlood flood-color="#fff" result="bg"/><feBlend in="SourceGraphic" in2="bg"/></filter><mask id="mask" x="329.81" y="-9042" width="1191.83" height="32766" maskUnits="userSpaceOnUse"><g class="cls-69"/></mask><linearGradient id="linear-gradient" x1="75.27" y1="847.48" x2="93.88" y2="2176.6" gradientTransform="translate(839.96)" gradientUnits="userSpaceOnUse"><stop offset="0" stop-color="#fff"/><stop offset="0.55"/><stop offset="1"/></linearGradient><filter id="luminosity-noclip-2" x="329.81" y="-9042" width="1368.11" height="32766" filterUnits="userSpaceOnUse" color-interpolation-filters="sRGB"><feFlood flood-color="#fff" result="bg"/><feBlend in="SourceGraphic" in2="bg"/></filter><mask id="mask-2" x="329.81" y="-9042" width="1368.11" height="32766" maskUnits="userSpaceOnUse"><g class="cls-68"/></mask><linearGradient id="linear-gradient-2" x1="1960.79" y1="742.53" x2="1968.77" y2="2179.11" gradientTransform="matrix(-1, 0, 0, 1, 2979.41, 0)" xlink:href="#linear-gradient"/><filter id="luminosity-noclip-3" x="398.3" y="-9042" width="1015.52" height="32766" filterUnits="userSpaceOnUse" color-interpolation-filters="sRGB"><feFlood flood-color="#fff" result="bg"/><feBlend in="SourceGraphic" in2="bg"/></filter><mask id="mask-3" x="398.3" y="-9042" width="1015.52" height="32766" maskUnits="userSpaceOnUse"><g class="cls-67"/></mask><linearGradient id="linear-gradient-3" x1="2069.98" y1="951.12" x2="2075.64" y2="1970.18" gradientTransform="matrix(-1, 0, 0, 1, 2979.41, 0)" xlink:href="#linear-gradient"/><radialGradient id="radial-gradient" cx="1460.82" cy="657.84" r="2250.97" gradientTransform="translate(339.28 184.22) scale(0.75 0.87)" gradientUnits="userSpaceOnUse"><stop offset="0" stop-color="#7929b7"/><stop offset="0.05" stop-color="#7628b5"/><stop offset="1" stop-color="#310b7a"/></radialGradient><filter id="luminosity-noclip-4" x="329.81" y="1026.94" width="1191.83" height="570.18" filterUnits="userSpaceOnUse" color-interpolation-filters="sRGB"><feFlood flood-color="#fff" result="bg"/><feBlend in="SourceGraphic" in2="bg"/></filter><mask id="mask-4" x="329.81" y="1026.94" width="1191.83" height="570.18" maskUnits="userSpaceOnUse"><g class="cls-66"><g transform="translate(0 0)"><g class="cls-1"><path class="cls-2" d="M471.41,1597.11H1521.64s-28.82-595.91-121-569.31-46.46,489.5-181.76,452.26-92.28-345.85-158.56-388.41-57.5,415-179.53,383.09S752.55,1041.1,694.21,1190.08c-46.81,119.55-18.74,364.47-166.58,298s-197.82,109.07-197.82,109.07Z"/></g></g></g></mask><linearGradient id="linear-gradient-4" x1="75.27" y1="847.48" x2="93.88" y2="2176.6" gradientTransform="translate(839.96)" gradientUnits="userSpaceOnUse"><stop offset="0" stop-color="#e20081"/><stop offset="0.55" stop-color="#ffb048"/><stop offset="1" stop-color="#fffc9f"/></linearGradient><filter id="luminosity-noclip-5" x="329.81" y="1020.01" width="1368.11" height="577.1" filterUnits="userSpaceOnUse" color-interpolation-filters="sRGB"><feFlood flood-color="#fff" result="bg"/><feBlend in="SourceGraphic" in2="bg"/></filter><mask id="mask-5" x="329.81" y="1020.01" width="1368.11" height="577.1" maskUnits="userSpaceOnUse"><g class="cls-65"><g transform="translate(0 0)"><g class="cls-3"><path class="cls-4" d="M1697.92,1597.11s-133-650.85-242.09-570.18-133.49,431.26-256.4,407.9S1050.9,1038.44,994,1131.55s-107.46,383.09-200.57,383.09S623.27,1139.53,562,1246s-134.47,287.31-232.21,351.16Z"/></g></g></g></mask><linearGradient id="linear-gradient-5" x1="1960.79" y1="742.53" x2="1968.77" y2="2179.11" gradientTransform="matrix(-1, 0, 0, 1, 2979.41, 0)" xlink:href="#linear-gradient-4"/><filter id="luminosity-noclip-6" x="398.3" y="1147.77" width="1015.52" height="409.43" filterUnits="userSpaceOnUse" color-interpolation-filters="sRGB"><feFlood flood-color="#fff" result="bg"/><feBlend in="SourceGraphic" in2="bg"/></filter><mask id="mask-6" x="398.3" y="1147.77" width="1015.52" height="409.43" maskUnits="userSpaceOnUse"><g class="cls-64"><g transform="translate(0 0)"><g class="cls-5"><path class="cls-6" d="M1413.82,1533.26s-155-484.61-244.75-367.12-82.47,380.42-178.24,332.54S846.9,1168.8,783.19,1275.21,714.06,1562.53,602.37,1504s-204.07,53.21-204.07,53.21H1413.82Z"/></g></g></g></mask><linearGradient id="linear-gradient-6" x1="2069.98" y1="951.12" x2="2075.64" y2="1970.18" gradientTransform="matrix(-1, 0, 0, 1, 2979.41, 0)" xlink:href="#linear-gradient-4"/><radialGradient id="radial-gradient-2" cx="2150.97" cy="1530.74" r="2325.3" gradientTransform="matrix(1, 0, 0, 1, 0, 0)" xlink:href="#linear-gradient-4"/><linearGradient id="linear-gradient-7" x1="-3004.11" y1="377.36" x2="-2903.23" y2="377.36" gradientTransform="matrix(-1, 0, 0, 1, -757.54, 0)" gradientUnits="userSpaceOnUse"><stop offset="0" stop-color="#ffe75c"/><stop offset="1" stop-color="#ff2a00"/></linearGradient><linearGradient id="linear-gradient-8" x1="-1979.68" y1="238.83" x2="-1401.58" y2="572.3" gradientTransform="translate(3957.1 0)" xlink:href="#linear-gradient-7"/><linearGradient id="linear-gradient-9" x1="-2926.93" y1="412.23" x2="-2914.06" y2="412.23" xlink:href="#linear-gradient-7"/><linearGradient id="linear-gradient-10" x1="-2006.47" y1="214.78" x2="-1380.9" y2="599.37" gradientTransform="translate(3957.1 0)" xlink:href="#linear-gradient-7"/><radialGradient id="radial-gradient-3" cx="1615.04" cy="1768.69" r="194.06" gradientTransform="translate(104.11 -711.41) rotate(4.61)" gradientUnits="userSpaceOnUse"><stop offset="0" stop-color="#ffffab"/><stop offset="0.55" stop-color="#cd00ff"/><stop offset="1" stop-color="#5739d8"/></radialGradient><radialGradient id="radial-gradient-4" cx="1654.1" cy="1861.53" r="186.43" xlink:href="#radial-gradient-3"/><linearGradient id="linear-gradient-11" x1="2176.58" y1="1812.91" x2="1326.27" y2="1801.05" gradientTransform="translate(104.11 -711.41) rotate(4.61)" gradientUnits="userSpaceOnUse"><stop offset="0" stop-color="#fffac0"/><stop offset="0.54" stop-color="#ffc880"/><stop offset="1" stop-color="#ef6262"/></linearGradient><linearGradient id="linear-gradient-12" x1="2055.37" y1="2013.87" x2="1103.07" y2="1691.3" xlink:href="#linear-gradient-11"/><linearGradient id="linear-gradient-13" x1="446.19" y1="2134.45" x2="1268.21" y2="2552.12" gradientTransform="translate(-242.02 -837.96) rotate(-17.26)" gradientUnits="userSpaceOnUse"><stop offset="0" stop-color="#3ea8ff"/><stop offset="1" stop-color="#5e4aed"/></linearGradient><radialGradient id="radial-gradient-5" cx="735.28" cy="1871.09" r="114" gradientTransform="translate(-242.02 -837.96) rotate(-17.26)" xlink:href="#radial-gradient-3"/><linearGradient id="linear-gradient-14" x1="921.85" y1="1250.69" x2="1016.28" y2="1187.95" gradientTransform="matrix(0.84, -0.28, 0.1, 1.37, 159.47, -511.02)" xlink:href="#linear-gradient-11"/><linearGradient id="linear-gradient-15" x1="1021.82" y1="1429.5" x2="1189.76" y2="1458.43" xlink:href="#linear-gradient-11"/><linearGradient id="linear-gradient-16" x1="835.3" y1="1523.28" x2="930.97" y2="1629.62" gradientTransform="translate(-384.56 -381.72) rotate(-14.35)" xlink:href="#linear-gradient-13"/><linearGradient id="linear-gradient-17" x1="856.44" y1="1515.31" x2="895.23" y2="1548.53" gradientTransform="matrix(0.97, -0.25, 0.25, 0.97, -374.88, -380.08)" xlink:href="#linear-gradient-13"/><radialGradient id="radial-gradient-6" cx="891.49" cy="1578.71" r="0.81" gradientTransform="translate(104.11 -711.41) rotate(4.61)" gradientUnits="userSpaceOnUse"><stop offset="0" stop-color="#fff6a6"/><stop offset="0.51" stop-color="#219ddb"/><stop offset="1" stop-color="#10488c"/></radialGradient><radialGradient id="radial-gradient-7" cx="816.7" cy="2185.14" r="1206.52" gradientTransform="translate(-242.02 -837.96) rotate(-17.26)" xlink:href="#linear-gradient-4"/><radialGradient id="radial-gradient-8" cx="878.48" cy="1559.23" r="62.46" xlink:href="#radial-gradient-3"/><linearGradient id="linear-gradient-18" x1="817.96" y1="1519.38" x2="916.79" y2="1597.32" xlink:href="#linear-gradient-11"/><linearGradient id="linear-gradient-19" x1="964.98" y1="1470.52" x2="965.33" y2="1480.43" gradientTransform="matrix(0.95, 0.32, -0.32, 0.95, 403.25, -809.45)" xlink:href="#linear-gradient-11"/><linearGradient id="linear-gradient-20" x1="964.98" y1="1476.2" x2="965.33" y2="1486.12" gradientTransform="matrix(0.95, 0.32, -0.32, 0.95, 403.25, -809.45)" xlink:href="#linear-gradient-11"/><linearGradient id="linear-gradient-21" x1="964.98" y1="1481.92" x2="965.33" y2="1491.83" gradientTransform="matrix(0.95, 0.32, -0.32, 0.95, 403.25, -809.45)" xlink:href="#linear-gradient-11"/><linearGradient id="linear-gradient-22" x1="964.98" y1="1487.39" x2="965.33" y2="1497.31" gradientTransform="matrix(0.95, 0.32, -0.32, 0.95, 403.25, -809.45)" xlink:href="#linear-gradient-11"/><radialGradient id="radial-gradient-9" cx="331.26" cy="1779.65" r="1857.69" gradientTransform="translate(-242.02 -837.96) rotate(-17.26)" xlink:href="#linear-gradient-4"/><radialGradient id="radial-gradient-10" cx="208.89" cy="1888.72" r="1826.2" gradientTransform="translate(-242.02 -837.96) rotate(-17.26)" xlink:href="#linear-gradient-4"/><radialGradient id="radial-gradient-11" cx="917.05" cy="1541.55" r="69.06" xlink:href="#radial-gradient-3"/><linearGradient id="linear-gradient-23" x1="874.09" y1="1490.87" x2="1042.03" y2="1596.94" xlink:href="#linear-gradient-11"/><radialGradient id="radial-gradient-12" cx="530.78" cy="1601.41" r="972.54" gradientTransform="translate(-242.02 -837.96) rotate(-17.26)" xlink:href="#radial-gradient-3"/><radialGradient id="radial-gradient-13" cx="1056.08" cy="776.43" r="226.26" gradientTransform="translate(904.6 -548.51) rotate(45)" xlink:href="#linear-gradient-4"/><radialGradient id="radial-gradient-14" cx="469.56" cy="1108.81" r="1291.03" gradientTransform="matrix(1, 0, 0, 1, 0, 0)" xlink:href="#radial-gradient"/><radialGradient id="radial-gradient-15" cx="568.28" cy="831.52" r="560.41" gradientTransform="matrix(1, 0, 0, 1, 0, 0)" xlink:href="#radial-gradient"/><radialGradient id="radial-gradient-16" cx="2066" cy="493.62" r="406.46" gradientTransform="matrix(1, 0, 0, 1, 0, 0)" xlink:href="#radial-gradient"/><radialGradient id="radial-gradient-17" cx="322.73" cy="865.21" r="1320.93" gradientTransform="matrix(1, 0, 0, 1, 0, 0)" xlink:href="#radial-gradient"/><radialGradient id="radial-gradient-18" cx="2065.02" cy="511.21" r="1109.39" gradientTransform="matrix(1, 0, 0, 1, 0, 0)" xlink:href="#radial-gradient"/><radialGradient id="radial-gradient-19" cx="1758.21" cy="823.29" r="1986.97" gradientTransform="matrix(1, 0, 0, 1, 0, 0)" xlink:href="#linear-gradient-4"/><radialGradient id="radial-gradient-20" cx="326.53" cy="137.34" r="2618.57" gradientTransform="matrix(1, 0, 0, 1, 0, 0)" xlink:href="#linear-gradient-4"/><radialGradient id="radial-gradient-21" cx="1670.44" cy="753.3" r="2090.81" gradientTransform="translate(1476.56 -1155.51) rotate(45)" xlink:href="#linear-gradient-4"/><linearGradient id="linear-gradient-24" x1="1777.23" y1="189.26" x2="2391.45" y2="662.63" gradientTransform="translate(2202.68 -1036.32) rotate(77.21)" gradientUnits="userSpaceOnUse"><stop offset="0" stop-color="#3ea8ff"/><stop offset="0.94" stop-color="#5e4aed"/></linearGradient><linearGradient id="linear-gradient-25" x1="752.33" y1="1100.42" x2="1150.17" y2="1407.02" gradientTransform="matrix(0.99, 0.11, -0.11, 0.99, 121.6, -148.34)" xlink:href="#linear-gradient-24"/><radialGradient id="radial-gradient-22" cx="2108.9" cy="1029.52" r="489.06" gradientTransform="translate(4127.99 1740.72) rotate(-180)" xlink:href="#linear-gradient-4"/><radialGradient id="radial-gradient-23" cx="1377.17" cy="1062.35" r="653.39" gradientTransform="matrix(1, 0, 0, 1, 0, 0)" xlink:href="#linear-gradient-4"/><linearGradient id="linear-gradient-26" x1="961.85" y1="260.74" x2="1759.69" y2="1309.62" gradientTransform="matrix(1, 0, 0, 1, 0, 0)" xlink:href="#linear-gradient-24"/><linearGradient id="linear-gradient-27" x1="-4213.63" y1="260.74" x2="-3415.79" y2="1309.62" gradientTransform="matrix(1, 0, 0, -1, 5696.97, 1740.72)" xlink:href="#linear-gradient-24"/><linearGradient id="linear-gradient-28" x1="1458.99" y1="1033.66" x2="1774.23" y2="1184.31" gradientTransform="matrix(1, 0, 0, 1, 0, 0)" xlink:href="#linear-gradient-24"/><linearGradient id="linear-gradient-29" x1="1589.05" y1="1034.81" x2="1976.13" y2="1393.95" gradientTransform="matrix(1, 0, 0, 1, 0, 0)" xlink:href="#linear-gradient-24"/></defs><g id="Layer_2" data-name="Layer 2"><rect class="cls-7" width="2700" height="1700"/></g><g id="Layer_1" data-name="Layer 1"><path class="cls-8" d="M2390,1525H1480s-18.12-156.24,90.61-135.28,163.09,88.32,160.5-24,18.13-252.19,115.21-281.77,282-9.91,319,220.5,104.72-24,193.19,35.82,39.28,163.08,116.94,134.68,71.19,50,71.19,50Z" transform="translate(0 0)"/><g class="cls-9"><path class="cls-10" d="M471.41,1597.11H1521.64s-28.82-595.91-121-569.31-46.46,489.5-181.76,452.26-92.28-345.85-158.56-388.41-57.5,415-179.53,383.09S752.55,1041.1,694.21,1190.08c-46.81,119.55-18.74,364.47-166.58,298s-197.82,109.07-197.82,109.07Z" transform="translate(0 0)"/></g><g class="cls-11"><path class="cls-12" d="M1697.92,1597.11s-133-650.85-242.09-570.18-133.49,431.26-256.4,407.9S1050.9,1038.44,994,1131.55s-107.46,383.09-200.57,383.09S623.27,1139.53,562,1246s-134.47,287.31-232.21,351.16Z" transform="translate(0 0)"/></g><g class="cls-13"><path class="cls-14" d="M1413.82,1533.26s-155-484.61-244.75-367.12-82.47,380.42-178.24,332.54S846.9,1168.8,783.19,1275.21,714.06,1562.53,602.37,1504s-204.07,53.21-204.07,53.21H1413.82Z" transform="translate(0 0)"/></g><path class="cls-15" d="M1019.81,901.2c-17.65,0-29.71-11.7-43-24.59-12.81-12.42-26-25.27-46.37-30.43-21.49-5.46-39.88,1.22-54.68,19.87a100.69,100.69,0,0,0-15.91,29.89l-1-.29A101.66,101.66,0,0,1,875,865.44c10.36-13.06,28.44-27.17,55.72-20.23,20.58,5.23,34.53,18.75,46.83,30.68,19.43,18.84,36.21,35.11,72.08,15,30.5-17.08,40.87-42.64,44.19-61.08a100.48,100.48,0,0,0-.09-36.37l1-.22a101.17,101.17,0,0,1,.12,36.72c-3.36,18.67-13.84,44.55-44.7,61.82C1038.17,898.46,1028.33,901.2,1019.81,901.2Z" transform="translate(0 0)"/><rect class="cls-16" x="1463.9" y="635.25" width="468.05" height="890.65" rx="68.85"/><rect class="cls-17" x="1492.3" y="659.79" width="414.08" height="839.7" rx="47.23"/><polygon class="cls-18" points="2145.69 394.97 2156.52 420.7 2246.57 334.03 2145.69 394.97"/><polygon class="cls-19" points="2159.23 403.77 2246.57 334.03 2207.3 426.11 2159.23 403.77"/><polygon class="cls-20" points="2159.23 403.77 2156.52 420.7 2169.39 408.49 2159.23 403.77"/><polygon class="cls-21" points="2246.57 334.03 2145.69 394.97 2109.8 375.33 2246.57 334.03"/><path class="cls-22" d="M1656.78,1209.3s21-5,38.39,5.87,27.17,27.11-12.47,12Z" transform="translate(0 0)"/><path class="cls-23" d="M1675.49,1316.7s21.62-6.28,39.06,21-7.9,27.92-29.57-6Z" transform="translate(0 0)"/><path class="cls-24" d="M1212.87,1196.86s178.56,94.79,392.69,42.64l65.54-16s39.33,13.87,30.73,2.47-45-16.72-45-16.72-243.35,7.76-362.19-53S1212.87,1196.86,1212.87,1196.86Z" transform="translate(0 0)"/><path class="cls-25" d="M1263.13,1177.58S1397.9,1336,1685,1331.75c0,0,26.38,27.11,25.06,13.91s-29.63-30.94-34.55-29-263.48-81.91-333.79-184S1263.13,1177.58,1263.13,1177.58Z" transform="translate(0 0)"/><path class="cls-26" d="M1313.42,1080.58s25.52,12.68,75.66,10.48c0,0-23.79,51.62-63.2,64.51s-52.39,19-58.54,39.9-53.58-10.57-69.27,6.91-40.15-33.28-40.15-33.28Z" transform="translate(0 0)"/><path class="cls-27" d="M1088.11,782.79s-14.72-2.91-13,15.47,10.89,22.29,5,31.33-6.8,25.24,12.57,26,39.5-7.86,49.26,4,29.61,20.56,32.87,5.18-31.4-43.18-33.76-43.36-22.88-15.32-22.88-15.32Z" transform="translate(0 0)"/><path class="cls-28" d="M1102.41,809.53s24.3,54.48,30.41,77.65c0,0-10.33,31.15-25.61,25,0,0-7-51.24-10.43-64.86S1102.41,809.53,1102.41,809.53Z" transform="translate(0 0)"/><path class="cls-29" d="M1084.57,805.75l-1.91,40.34s25.1,6.72,27.63-12.5.88-42.05.88-42.05S1085.89,777.78,1084.57,805.75Z" transform="translate(0 0)"/><rect class="cls-15" x="829.63" y="884.98" width="35.21" height="62.9" rx="5.93" transform="translate(343.68 -225.53) rotate(18.96)"/><rect class="cls-30" x="831.97" y="889.04" width="30.24" height="55.63" transform="translate(343.8 -225.46) rotate(18.96)"/><rect class="cls-31" x="854.15" y="888.39" width="5.29" height="0.45" rx="0.18" transform="translate(335.17 -230.15) rotate(18.96)"/><path class="cls-32" d="M866.22,934l-.22.35A1.29,1.29,0,0,1,866.22,934Z" transform="translate(0 0)"/><path class="cls-33" d="M1103.47,957.25s-42.45,60.35-125,63.63a143.58,143.58,0,0,1-14.42-.15c-73.28-4.44-112.27-64.14-112.27-64.14L866,934.3c-1,2-1.94,12.73,65.84,38.93,75.73,29.27,164.54-76.67,164.54-76.67l6.75,55.66Z" transform="translate(0 0)"/><path class="cls-34" d="M1103.47,957.25s-42.45,60.35-125,63.63a143.58,143.58,0,0,1-14.42-.15c98.27-13.93,121.71-81.79,121.71-81.79l17.38,13.28Z" transform="translate(0 0)"/><path class="cls-35" d="M866.22,934s3.1,5-1.59,14.82-12.86,7.81-12.86,7.81S853.19,949.33,866.22,934Z" transform="translate(0 0)"/><path class="cls-36" d="M864.05,930.37a38.71,38.71,0,0,0,5.81-16.91c.62-9.23-6-10.75-3.25.4,0,0-20.65,16.69-16.34,27.24s8.86,12.67,8.86,12.67,3.74-1,6-9.66l-7-6A30,30,0,0,0,864.05,930.37Z" transform="translate(0 0)"/><path class="cls-37" d="M835.92,895.17s4.74,7.13,2.32,8.66-4.12-3.4-4.12-3.4S832.64,898.93,835.92,895.17Z" transform="translate(0 0)"/><path class="cls-38" d="M834.08,900.55s4.73,7.13,2.32,8.66-4.13-3.4-4.13-3.4S830.8,904.31,834.08,900.55Z" transform="translate(0 0)"/><path class="cls-39" d="M832.22,906s4.73,7.13,2.32,8.66-4.13-3.4-4.13-3.4S828.94,909.71,832.22,906Z" transform="translate(0 0)"/><path class="cls-40" d="M830.44,911.13s4.73,7.13,2.32,8.66-4.13-3.4-4.13-3.4S827.16,914.89,830.44,911.13Z" transform="translate(0 0)"/><path class="cls-41" d="M1096.38,896.56s-70.46,153.63,61.54,272.54c0,0,138.88-25.45,159-98.31,0,0-94.26-42.52-114.36-109.73s-66.38-79.58-66.38-79.58Z" transform="translate(0 0)"/><path class="cls-42" d="M1154.32,902.42s31.76,107.07-25.4,121.77S962.61,914.73,962.61,914.73s-11.77,16.11-25.6,15.16c0,0,89.29,125.9,164.3,143.34s89.7-39.67,98-67.22S1207.85,903.25,1154.32,902.42Z" transform="translate(0 0)"/><path class="cls-43" d="M937,929.89s10.76-16.48,25.6-15.16C962.61,914.73,952.34,933.62,937,929.89Z" transform="translate(0 0)"/><path class="cls-44" d="M956.42,916.19s-5-22.69-18-30.15-32-11.92-35-9.58,19.76,6.79,19.76,6.79l3.12,5.22-8.1-3.35s-17.88-.47-18.8,2.61,17,2,17,2l7.76,6.52-11.59-4.17-12.82,6.54s1.8,4.65,11.17.44l2.62-1.55,9.92,7.37,19.31,14.7,2.34,8S954.92,926.06,956.42,916.19Z" transform="translate(0 0)"/><path class="cls-45" d="M1087.15,794.69s11.71-7.21,11.93,5.5-1.27,16.7,6.49,18.36-6.52,7.19-3.26,15.87-11.42,24.18,23.24,17.07,55.49,34.63,61.53-1-26.24-14-29.89-27.8,1.35-21.65-12.58-26-19.7-1.6-22.32-13.31S1080.71,769.81,1087.15,794.69Z" transform="translate(0 0)"/><circle class="cls-15" cx="1114.42" cy="817.69" r="16.21" transform="translate(-251.79 1027.51) rotate(-45)"/><rect class="cls-15" x="1108.63" y="775.1" width="9.88" height="34.43"/><circle class="cls-46" cx="1114.42" cy="817.69" r="10.56" transform="translate(-251.79 1027.51) rotate(-45)"/><path class="cls-47" d="M1691.8,1525.78H1131.15s37.51-70.38,99.27-45.39,57.67-66.68,129.39-89.17,92.63,103.78,143.8,66.1S1657.32,1428.28,1691.8,1525.78Z" transform="translate(0 0)"/><path class="cls-48" d="M723,917.32a6.12,6.12,0,0,1-.1,1.14H636.22a12.8,12.8,0,0,1,8.61-16.55,6.39,6.39,0,0,1,8.59-8.59,23.1,23.1,0,0,1,42.07,2.32,15.87,15.87,0,0,1,5-.79,16.08,16.08,0,0,1,16.08,16.08A6.39,6.39,0,0,1,723,917.32Z" transform="translate(0 0)"/><path class="cls-49" d="M2178.19,555.85a4.58,4.58,0,0,1-.08.83h-62.84a9.28,9.28,0,0,1,6.25-12,4.64,4.64,0,0,1,6.23-6.24,16.75,16.75,0,0,1,30.51,1.69,11.45,11.45,0,0,1,3.63-.58,11.66,11.66,0,0,1,11.66,11.67A4.63,4.63,0,0,1,2178.19,555.85Z" transform="translate(0 0)"/><path class="cls-50" d="M687.33,1067.45a15,15,0,0,1-.24,2.69H482.86a30.15,30.15,0,0,1,20.29-39,15.07,15.07,0,0,1,20.26-20.25,54.43,54.43,0,0,1,99.16,5.47,37.93,37.93,0,0,1,49.69,36A15.07,15.07,0,0,1,687.33,1067.45Z" transform="translate(0 0)"/><path class="cls-51" d="M2371.23,681.06a11.92,11.92,0,0,1-.2,2.25H2199.51a25,25,0,0,1-1.43-8.38,25.32,25.32,0,0,1,18.47-24.37,12.66,12.66,0,0,1,17-17,45.71,45.71,0,0,1,83.27,4.59,31.86,31.86,0,0,1,41.74,30.26A12.65,12.65,0,0,1,2371.23,681.06Z" transform="translate(0 0)"/><circle class="cls-52" cx="1699.36" cy="916.85" r="135.33"/><circle class="cls-53" cx="1197.27" cy="633.06" r="64.61"/><path class="cls-15" d="M1222.79,639.11l0,0-19.88-34.59-2.7-4.7-4.12,2.37-23.34,13.42-4.12,2.37,2.7,4.69L1190,655.11a19.88,19.88,0,0,0-5.89,4.61c-4.12,4.57-5.75,9.82-3.64,11.72s7.16-.26,11.28-4.83,5.75-9.82,3.64-11.72l-.06,0-19.88-34.59,23.33-13.41,18.67,32.48a20,20,0,0,0-5.89,4.61c-4.11,4.57-5.74,9.82-3.63,11.72s7.15-.26,11.27-4.83S1224.9,641,1222.79,639.11Z" transform="translate(0 0)"/><circle class="cls-54" cx="2133.11" cy="1204.61" r="94.69" transform="translate(-227.02 1861.16) rotate(-45)"/><path class="cls-15" d="M2142.77,1241.82s0-.07,0-.1l31.17-49.47,4.23-6.71-5.9-3.72-33.37-21-5.9-3.71-4.23,6.71-29.27,46.46a29.37,29.37,0,0,0-10-4.47c-8.75-2.2-16.66-.71-17.68,3.33s5.25,9.09,14,11.29,16.65.71,17.67-3.32c0,0,0-.07,0-.1l31.17-49.47,33.37,21L2138.79,1235a29.33,29.33,0,0,0-10-4.46c-8.74-2.21-16.65-.72-17.67,3.32s5.25,9.09,14,11.29S2141.75,1245.85,2142.77,1241.82Z" transform="translate(0 0)"/><circle class="cls-55" cx="2309.64" cy="958.78" r="61.58" transform="translate(-1.48 1913.98) rotate(-45)"/><path class="cls-15" d="M2315.93,983a.13.13,0,0,1,0-.06l20.27-32.18,2.75-4.36-3.83-2.42-21.71-13.67-3.83-2.42-2.75,4.37-19,30.21a18.86,18.86,0,0,0-6.51-2.9c-5.69-1.44-10.84-.47-11.5,2.16s3.42,5.91,9.1,7.34,10.84.46,11.5-2.16c0,0,0,0,0-.06l20.27-32.18,21.7,13.68-19,30.21a18.83,18.83,0,0,0-6.52-2.9c-5.68-1.43-10.83-.47-11.49,2.16s3.41,5.91,9.1,7.34S2315.26,985.6,2315.93,983Z" transform="translate(0 0)"/><circle class="cls-56" cx="861.75" cy="1136.92" r="39.89" transform="translate(-426.99 525.07) rotate(-27.44)"/><path class="cls-15" d="M876.75,1143l0,0-8.88-23-1.21-3.12-2.74,1.06-15.49,6-2.74,1.06,1.21,3.12,8.34,21.57a12.38,12.38,0,0,0-4,2.27c-2.94,2.4-4.43,5.45-3.32,6.81s4.4.51,7.34-1.9,4.43-5.45,3.32-6.8l0,0-8.89-23,15.5-6,8.34,21.57a12.34,12.34,0,0,0-4,2.27c-2.95,2.4-4.43,5.45-3.32,6.8s4.39.52,7.33-1.89S877.86,1144.36,876.75,1143Z" transform="translate(0 0)"/><path class="cls-57" d="M1699.33,321.41c-196.34,0-356,194.77-356,434.3,0,15.07.61,30,1.84,44.68h34.15c-1.35-14.67-2-29.61-2-44.68,0-220.79,144.45-400.35,322-400.35s322.1,179.56,322.1,400.35c0,15.07-.67,30-2,44.68h34.16c1.22-14.67,1.83-29.61,1.83-44.68C2055.39,516.18,1895.66,321.41,1699.33,321.41Z" transform="translate(0 0)"/><rect class="cls-15" x="1987.21" y="715.29" width="51.19" height="310.15" rx="3.77" transform="translate(4025.61 1740.72) rotate(180)"/><path class="cls-58" d="M2045.94,759.27h43.65a0,0,0,0,1,0,0V981.45a0,0,0,0,1,0,0h-43.65a7.54,7.54,0,0,1-7.54-7.54V766.81A7.54,7.54,0,0,1,2045.94,759.27Z" transform="translate(4127.99 1740.72) rotate(180)"/><rect class="cls-15" x="1360.28" y="715.29" width="51.19" height="310.15" rx="3.77"/><path class="cls-59" d="M1316.63,759.27h43.65a0,0,0,0,1,0,0V981.45a0,0,0,0,1,0,0h-43.65a7.54,7.54,0,0,1-7.54-7.54V766.81A7.54,7.54,0,0,1,1316.63,759.27Z"/><path class="cls-60" d="M1411.47,717H1414a51.68,51.68,0,0,1,51.68,51.68V972a51.68,51.68,0,0,1-51.68,51.68h-2.56a0,0,0,0,1,0,0V717A0,0,0,0,1,1411.47,717Z"/><path class="cls-61" d="M1933,717h2.56a51.68,51.68,0,0,1,51.68,51.68V972a51.68,51.68,0,0,1-51.68,51.68H1933a0,0,0,0,1,0,0V717A0,0,0,0,1,1933,717Z" transform="translate(3920.18 1740.72) rotate(180)"/><path class="cls-62" d="M1648.33,1102.66a13.78,13.78,0,0,0,.93,5H1558.6a5,5,0,0,1,0-10h90.66A13.78,13.78,0,0,0,1648.33,1102.66Z" transform="translate(0 0)"/><path class="cls-15" d="M1852.5,1102.66a5,5,0,0,1-5,5H1649.26a13.85,13.85,0,0,1,0-10h198.25A5,5,0,0,1,1852.5,1102.66Z" transform="translate(0 0)"/><path class="cls-63" d="M1676,1102.66a13.85,13.85,0,1,1-.93-5A13.78,13.78,0,0,1,1676,1102.66Z" transform="translate(0 0)"/><image width="114" height="100" transform="translate(1539.8 766.83) scale(2.96 3.07)" xlink:href="ar-logo.png"/></g></svg>